<?xml version="1.0" encoding="utf-8"?>
<!-- Generator: Adobe Illustrator 25.2.3, SVG Export Plug-In . SVG Version: 6.00 Build 0)  -->
<svg version="1.1" id="Layer_1" xmlns="http://www.w3.org/2000/svg" xmlns:xlink="http://www.w3.org/1999/xlink" x="0px" y="0px"
	 viewBox="0 0 1291.9 1202.9" style="enable-background:new 0 0 1291.9 1202.9;" xml:space="preserve">
<style type="text/css">
	.st0{fill:#467302;}
	.st1{fill:#72A603;}
	.st2{fill:#4E8003;}
	.st3{fill:#BED95F;}
	.st4{fill:#869943;}
	.st5{fill:#CAE665;}
	.st6{fill:#A8BF54;}
	.st7{fill:#FFFFFF;}
	.st8{opacity:0.83;}
	.st9{fill:none;}
</style>
<g>
	<g>
		<path class="st0" d="M646,495.1c68.1-54.6,154.4-87.2,248.4-87.2c52.3,0,102.2,10.1,147.9,28.5c1.2-12.8,1.9-25.7,1.9-38.8
			C1044.2,178,866.2,0,646.7,0S249.2,178,249.2,397.5c0,12.9,0.6,25.7,1.8,38.2c45.3-18,94.8-27.9,146.5-27.9
			C491.5,407.9,577.9,440.6,646,495.1z"/>
	</g>
	<g>
		<path class="st1" d="M496.9,805.4c0-13.1,0.7-26.1,1.9-38.8c-135-54.2-233.4-180.2-247.8-330.8C104,494.1,0,637.6,0,805.4
			c0,219.5,178,397.5,397.5,397.5c94,0,180.4-32.7,248.4-87.2C555.1,1042.9,496.9,930.9,496.9,805.4z"/>
	</g>
	<g>
		<path class="st2" d="M498.8,766.6c10.6-109.6,65.8-206.2,147.2-271.5c-68.1-54.6-154.4-87.2-248.4-87.2
			c-51.7,0-101.2,9.9-146.5,27.9C265.4,586.3,363.8,712.4,498.8,766.6z"/>
	</g>
	<g>
		<path class="st3" d="M1042.3,436.3c-14.6,150.9-113.6,277-249.1,330.8c1.2,12.6,1.8,25.3,1.8,38.2c0,125.5-58.2,237.4-149.1,310.3
			c68.1,54.6,154.4,87.2,248.4,87.2c219.5,0,397.5-178,397.5-397.5C1291.9,638.1,1188.6,495,1042.3,436.3z"/>
	</g>
	<g>
		<path class="st4" d="M646,495.1c81.5,65.4,136.7,162.2,147.2,272c135.6-53.8,234.5-179.9,249.1-330.8
			c-45.7-18.3-95.6-28.5-147.9-28.5C800.4,407.9,714,440.6,646,495.1z"/>
	</g>
	<g>
		<path class="st5" d="M795,805.4c0-12.9-0.6-25.7-1.8-38.2c-45.3,18-94.8,27.9-146.5,27.9c-52.3,0-102.2-10.1-147.9-28.5
			c-1.2,12.8-1.9,25.7-1.9,38.8c0,125.5,58.2,237.4,149.1,310.3C736.8,1042.9,795,930.9,795,805.4z"/>
	</g>
	<g>
		<path class="st6" d="M646,495.1c-81.4,65.2-136.5,161.8-147.2,271.5c45.7,18.3,95.6,28.5,147.9,28.5c51.7,0,101.2-9.9,146.5-27.9
			C782.7,657.3,727.5,560.5,646,495.1z"/>
	</g>
	<g>
		<g>
			<path class="st7" d="M521.5,638.8c1.1,0.7,2.3,1.3,3.5,1.6c1.2,0.4,2.3,0.5,3.5,0.5s2.1-0.3,2.8-0.8s1.1-1.2,1.1-2
				c0-0.7-0.3-1.2-0.8-1.6c-0.6-0.4-1.3-0.7-2.1-1s-1.8-0.6-2.7-0.9s-1.9-0.8-2.7-1.3s-1.5-1.2-2.1-2.1c-0.6-0.9-0.8-2-0.8-3.5
				c0-1.1,0.2-2.1,0.7-3c0.4-0.9,1.1-1.7,1.9-2.3s1.8-1.2,2.9-1.5s2.4-0.5,3.7-0.5c1.1,0,2.3,0.1,3.4,0.3s2.3,0.5,3.4,1v5.2
				c-1.1-0.6-2.1-1.1-3.2-1.4c-1.1-0.3-2.1-0.4-3.2-0.4c-1.1,0-2,0.2-2.7,0.7c-0.7,0.5-1,1.1-1,1.9c0,0.7,0.3,1.2,0.8,1.6
				c0.6,0.4,1.2,0.7,2.1,1c0.8,0.3,1.7,0.6,2.7,0.9s1.9,0.8,2.7,1.3s1.5,1.3,2.1,2.2c0.6,0.9,0.8,2.1,0.8,3.5c0,1.1-0.2,2.1-0.7,3.1
				s-1.1,1.7-1.9,2.4c-0.8,0.7-1.8,1.2-2.9,1.5c-1.1,0.4-2.4,0.5-3.7,0.5c-2.5,0-4.9-0.5-7.4-1.6L521.5,638.8L521.5,638.8z"/>
		</g>
		<g>
			<path class="st7" d="M566.1,636c0,1.4-0.3,2.7-0.8,3.9c-0.6,1.2-1.3,2.2-2.3,3.1s-2.1,1.5-3.5,2c-1.3,0.5-2.8,0.7-4.4,0.7
				c-1.6,0-3.1-0.2-4.4-0.7c-1.3-0.5-2.5-1.1-3.5-2s-1.7-1.9-2.3-3.1c-0.5-1.2-0.8-2.5-0.8-3.9v-15.2h5.9v14.8
				c0,0.8,0.1,1.5,0.4,2.1s0.6,1.2,1.1,1.6c0.4,0.5,1,0.8,1.6,1s1.3,0.4,2,0.4s1.4-0.1,2-0.4s1.2-0.6,1.6-1s0.8-1,1.1-1.6
				s0.4-1.3,0.4-2.1v-14.8h5.9L566.1,636L566.1,636z"/>
		</g>
		<g>
			<path class="st7" d="M572.8,638.8c1.1,0.7,2.3,1.3,3.5,1.6c1.2,0.4,2.3,0.5,3.5,0.5s2.1-0.3,2.8-0.8s1.1-1.2,1.1-2
				c0-0.7-0.3-1.2-0.8-1.6c-0.6-0.4-1.3-0.7-2.1-1s-1.8-0.6-2.7-0.9s-1.9-0.8-2.7-1.3s-1.5-1.2-2.1-2.1c-0.6-0.9-0.8-2-0.8-3.5
				c0-1.1,0.2-2.1,0.7-3c0.4-0.9,1.1-1.7,1.9-2.3s1.8-1.2,2.9-1.5c1.1-0.4,2.4-0.5,3.7-0.5c1.1,0,2.3,0.1,3.4,0.3s2.3,0.5,3.4,1v5.2
				c-1.1-0.6-2.1-1.1-3.2-1.4c-1.1-0.3-2.1-0.4-3.2-0.4c-1.1,0-2,0.2-2.7,0.7c-0.7,0.5-1,1.1-1,1.9c0,0.7,0.3,1.2,0.8,1.6
				c0.6,0.4,1.2,0.7,2.1,1c0.8,0.3,1.7,0.6,2.7,0.9s1.9,0.8,2.7,1.3s1.5,1.3,2.1,2.2c0.6,0.9,0.8,2.1,0.8,3.5c0,1.1-0.2,2.1-0.7,3.1
				s-1.1,1.7-1.9,2.4c-0.8,0.7-1.8,1.2-2.9,1.5c-1.1,0.4-2.4,0.5-3.7,0.5c-2.5,0-4.9-0.5-7.4-1.6L572.8,638.8L572.8,638.8z"/>
		</g>
		<g>
			<path class="st7" d="M600.6,625.6h-7.1v-4.8h20v4.8h-7.1v19.7h-5.9L600.6,625.6L600.6,625.6z"/>
		</g>
		<g>
			<path class="st7" d="M623.1,620.8h5.1l9.6,24.5H632l-1.9-5.1h-9l-1.8,5.1h-5.8L623.1,620.8z M622.7,635.8h5.7l-2.8-7.9
				L622.7,635.8z"/>
		</g>
		<g>
			<path class="st7" d="M642.3,620.8h5.9v24.5h-5.9V620.8z"/>
		</g>
		<g>
			<path class="st7" d="M655.9,620.8h5.1l11,15.1v-15.1h5.5v24.5h-5.1l-11-15.1v15.1h-5.6L655.9,620.8L655.9,620.8z"/>
		</g>
		<g>
			<path class="st7" d="M691.7,620.8h5.1l9.6,24.5h-5.8l-1.9-5.1h-9l-1.8,5.1h-5.8L691.7,620.8z M691.4,635.8h5.7l-2.8-7.9
				L691.4,635.8z"/>
		</g>
		<g>
			<path class="st7" d="M711,620.8h10.1c1.1,0,2.1,0.2,3,0.5s1.7,0.8,2.3,1.4s1.2,1.3,1.6,2.1s0.6,1.7,0.6,2.6
				c0,1.2-0.3,2.3-0.8,3.2s-1.3,1.7-2.3,2.1c1.3,0.5,2.3,1.2,3,2.2c0.7,1,1.1,2.2,1.1,3.5c0,1-0.2,1.9-0.6,2.8s-0.9,1.6-1.6,2.2
				c-0.7,0.6-1.5,1.1-2.4,1.4c-0.9,0.3-2,0.5-3.1,0.5H711L711,620.8L711,620.8z M716.6,630.6h3.3c0.8,0,1.5-0.2,2.1-0.8
				c0.5-0.5,0.8-1.1,0.8-1.9c0-0.8-0.3-1.4-0.8-1.9c-0.6-0.5-1.2-0.7-2.1-0.7h-3.3V630.6z M716.6,640.7h3.8c0.9,0,1.6-0.3,2.2-0.8
				c0.6-0.5,0.9-1.2,0.9-2s-0.3-1.5-0.9-2c-0.6-0.5-1.3-0.8-2.2-0.8h-3.8V640.7z"/>
		</g>
		<g>
			<path class="st7" d="M735.5,620.8h5.9v19.7h9.2v4.8h-15.1V620.8z"/>
		</g>
		<g>
			<path class="st7" d="M756,620.8h15.4v4.8h-9.5v4.9h8.1v4.7h-8.1v5.3h9.8v4.8H756V620.8z"/>
		</g>
		<g>
			<path class="st7" d="M511.6,663.5h9.7c1.8,0,3.4,0.3,4.9,0.9s2.8,1.5,3.8,2.5s1.9,2.4,2.5,3.9s0.9,3.2,0.9,4.9
				c0,1.8-0.3,3.4-0.9,4.9s-1.4,2.8-2.5,3.9s-2.3,1.9-3.8,2.5s-3.1,0.9-4.9,0.9h-9.7V663.5z M517.5,683.1h3.5c0.9,0,1.8-0.2,2.6-0.5
				c0.8-0.4,1.4-0.9,2-1.5s1-1.4,1.3-2.3s0.5-1.9,0.5-3s-0.2-2.1-0.5-3c-0.3-0.9-0.7-1.7-1.3-2.3c-0.6-0.7-1.2-1.2-2-1.5
				c-0.8-0.3-1.6-0.5-2.6-0.5h-3.5V683.1z"/>
		</g>
		<g>
			<path class="st7" d="M539.5,663.5H555v4.8h-9.5v4.9h8.1v4.7h-8.1v5.3h9.8v4.8h-15.7L539.5,663.5L539.5,663.5z"/>
		</g>
		<g>
			<path class="st7" d="M573.3,688h-5.1l-9.6-24.5h6.1l6.1,16.5l6.1-16.5h6.1L573.3,688z"/>
		</g>
		<g>
			<path class="st7" d="M587.4,663.5h15.4v4.8h-9.5v4.9h8.1v4.7h-8.1v5.3h9.8v4.8h-15.7V663.5z"/>
		</g>
		<g>
			<path class="st7" d="M609.5,663.5h5.9v19.7h9.2v4.8h-15.1L609.5,663.5L609.5,663.5z"/>
		</g>
		<g>
			<path class="st7" d="M627.9,675.7c0-1.8,0.3-3.5,0.9-5.1c0.6-1.5,1.5-2.9,2.6-4c1.1-1.1,2.4-2,3.9-2.6s3.2-0.9,5-0.9
				c1.8,0,3.5,0.3,5,0.9s2.8,1.5,3.9,2.6c1.1,1.1,1.9,2.5,2.5,4c0.6,1.5,0.9,3.3,0.9,5.1s-0.3,3.5-0.9,5.1c-0.6,1.6-1.4,2.9-2.5,4
				c-1.1,1.1-2.4,2-3.9,2.6s-3.2,0.9-5,0.9c-1.8,0-3.5-0.3-5-0.9c-1.5-0.6-2.8-1.5-3.9-2.6c-1.1-1.1-2-2.5-2.6-4
				C628.2,679.3,627.9,677.6,627.9,675.7z M634,675.7c0,1.1,0.2,2.2,0.5,3.1c0.3,0.9,0.7,1.7,1.3,2.4c0.5,0.7,1.2,1.2,2,1.6
				c0.8,0.4,1.6,0.6,2.6,0.6s1.8-0.2,2.5-0.6s1.4-0.9,2-1.6c0.6-0.7,1-1.5,1.3-2.4s0.5-2,0.5-3.1c0-1.1-0.2-2.2-0.5-3.1
				c-0.3-0.9-0.7-1.7-1.3-2.4s-1.2-1.2-2-1.6s-1.6-0.6-2.5-0.6c-0.9,0-1.8,0.2-2.6,0.6s-1.4,0.9-2,1.6c-0.6,0.7-1,1.5-1.3,2.4
				C634.1,673.6,634,674.6,634,675.7z"/>
		</g>
		<g>
			<path class="st7" d="M658.7,663.5h9.4c1.3,0,2.5,0.2,3.5,0.6c1.1,0.4,2,1,2.8,1.7c0.8,0.7,1.4,1.6,1.8,2.5c0.4,1,0.6,2.1,0.6,3.3
				s-0.2,2.3-0.6,3.3c-0.4,1-1,1.8-1.8,2.5c-0.8,0.7-1.7,1.2-2.8,1.6c-1.1,0.4-2.2,0.6-3.5,0.6h-3.6v8.4h-5.8V663.5z M664.5,674.9
				h2.8c1.1,0,1.9-0.3,2.6-0.9s1-1.4,1-2.4c0-1-0.3-1.8-1-2.5c-0.7-0.6-1.6-0.9-2.6-0.9h-2.8V674.9z"/>
		</g>
		<g>
			<path class="st7" d="M682.7,663.5h5.1l7.3,9.9l7.2-9.9h5.1V688H702v-15.1l-5.2,7h-3.4l-5.1-7V688h-5.6L682.7,663.5L682.7,663.5z"
				/>
		</g>
		<g>
			<path class="st7" d="M715.1,663.5h15.4v4.8H721v4.9h8.1v4.7H721v5.3h9.8v4.8h-15.7L715.1,663.5L715.1,663.5z"/>
		</g>
		<g>
			<path class="st7" d="M737.2,663.5h5.1l11,15.1v-15.1h5.5V688h-5.1l-11-15.1V688h-5.6V663.5z"/>
		</g>
		<g>
			<path class="st7" d="M771.5,668.3h-7.1v-4.8h20v4.8h-7.1V688h-5.9V668.3z"/>
		</g>
	</g>
	<g class="st8">
		<g>
			<path class="st7" d="M816.4,517.6c0-1.1,0.2-2.2,0.5-3.1c0.3-0.9,0.8-1.7,1.5-2.4c0.6-0.7,1.4-1.2,2.2-1.6s1.8-0.6,2.8-0.6
				c0.9,0,1.8,0.2,2.6,0.5c0.8,0.3,1.4,0.9,2,1.5c0.5,0.7,1,1.4,1.3,2.3s0.5,1.9,0.5,3v0.6c0,0.2,0,0.4-0.1,0.6h-10.3
				c0,0.7,0.2,1.3,0.4,1.9c0.3,0.6,0.6,1.1,1,1.5c0.4,0.4,0.9,0.7,1.5,1s1.2,0.3,1.9,0.3c1.4,0,2.9-0.5,4.4-1.4v2.6
				c-1.6,0.8-3.2,1.2-4.8,1.2c-1.1,0-2.1-0.2-3-0.6s-1.7-0.9-2.3-1.6s-1.2-1.5-1.5-2.5C816.6,519.8,816.4,518.8,816.4,517.6z
				 M826.9,516.5c0-1.2-0.4-2.3-1-3s-1.5-1.2-2.5-1.2c-1.1,0-2,0.4-2.7,1.2c-0.7,0.8-1.2,1.8-1.2,3H826.9z"/>
		</g>
		<g>
			<path class="st7" d="M833.5,517.7c0-1.2,0.2-2.2,0.6-3.1c0.4-1,0.9-1.8,1.5-2.5c0.7-0.7,1.4-1.2,2.3-1.6c0.9-0.4,1.9-0.6,3-0.6
				c1.5,0,2.9,0.3,4.3,1v2.7c-0.6-0.4-1.3-0.8-1.9-1c-0.7-0.2-1.3-0.3-1.9-0.3c-0.7,0-1.4,0.1-1.9,0.4s-1.1,0.6-1.5,1.1
				c-0.4,0.5-0.8,1-1,1.7c-0.2,0.7-0.4,1.4-0.4,2.1c0,0.8,0.1,1.5,0.4,2.1s0.6,1.2,1,1.7c0.4,0.5,0.9,0.8,1.5,1.1
				c0.6,0.3,1.2,0.4,1.9,0.4c0.6,0,1.3-0.1,1.9-0.3s1.3-0.5,1.9-1v2.7c-1.4,0.7-2.9,1-4.3,1c-1.1,0-2.1-0.2-3-0.6s-1.7-0.9-2.3-1.6
				s-1.2-1.5-1.5-2.5C833.7,519.9,833.5,518.8,833.5,517.7z"/>
		</g>
		<g>
			<path class="st7" d="M849.2,517.7c0-1.2,0.2-2.2,0.5-3.1c0.3-1,0.9-1.8,1.5-2.5s1.4-1.2,2.3-1.6c0.9-0.4,1.9-0.6,3-0.6
				s2.1,0.2,3,0.6s1.7,0.9,2.3,1.6c0.7,0.7,1.2,1.5,1.5,2.5c0.4,1,0.5,2,0.5,3.1c0,1.2-0.2,2.2-0.5,3.1c-0.4,1-0.9,1.8-1.5,2.5
				c-0.7,0.7-1.4,1.2-2.3,1.6c-0.9,0.4-1.9,0.6-3,0.6s-2.1-0.2-3-0.6s-1.7-0.9-2.3-1.6c-0.7-0.7-1.2-1.5-1.5-2.5
				C849.4,519.9,849.2,518.9,849.2,517.7z M852.3,517.7c0,0.8,0.1,1.5,0.3,2.1c0.2,0.7,0.5,1.2,0.9,1.7c0.4,0.5,0.8,0.8,1.4,1.1
				c0.5,0.3,1.1,0.4,1.7,0.4c0.6,0,1.2-0.1,1.7-0.4c0.5-0.3,1-0.6,1.4-1.1c0.4-0.5,0.7-1,0.9-1.7c0.2-0.7,0.3-1.4,0.3-2.1
				c0-0.8-0.1-1.5-0.3-2.1c-0.2-0.7-0.5-1.2-0.9-1.7c-0.4-0.5-0.8-0.8-1.4-1.1c-0.5-0.3-1.1-0.4-1.7-0.4c-0.6,0-1.2,0.1-1.7,0.4
				c-0.5,0.3-1,0.6-1.4,1.1s-0.7,1-0.9,1.7C852.4,516.2,852.3,516.9,852.3,517.7z"/>
		</g>
		<g>
			<path class="st7" d="M868.8,510.3h3v1.5c0.7-0.6,1.4-1,2.2-1.4c0.8-0.3,1.6-0.5,2.3-0.5c0.8,0,1.5,0.1,2.1,0.4
				c0.6,0.3,1.2,0.6,1.7,1.1s0.8,1,1.1,1.7c0.3,0.6,0.4,1.3,0.4,2.1v9.9h-3v-9.5c0-0.9-0.3-1.7-0.9-2.3s-1.3-0.9-2.2-0.9
				c-1.3,0-2.6,0.6-3.7,1.9v10.7h-3V510.3z"/>
		</g>
		<g>
			<path class="st7" d="M886.3,517.7c0-1.2,0.2-2.2,0.5-3.1c0.4-1,0.9-1.8,1.5-2.5s1.4-1.2,2.3-1.6c0.9-0.4,1.9-0.6,3-0.6
				s2.1,0.2,3,0.6s1.7,0.9,2.3,1.6s1.2,1.5,1.5,2.5c0.4,1,0.5,2,0.5,3.1c0,1.2-0.2,2.2-0.5,3.1c-0.3,1-0.9,1.8-1.5,2.5
				s-1.4,1.2-2.3,1.6c-0.9,0.4-1.9,0.6-3,0.6s-2.1-0.2-3-0.6s-1.7-0.9-2.3-1.6c-0.7-0.7-1.2-1.5-1.5-2.5S886.3,518.9,886.3,517.7z
				 M889.4,517.7c0,0.8,0.1,1.5,0.3,2.1c0.2,0.7,0.5,1.2,0.9,1.7c0.4,0.5,0.8,0.8,1.4,1.1c0.5,0.3,1.1,0.4,1.7,0.4
				c0.6,0,1.2-0.1,1.7-0.4c0.5-0.3,1-0.6,1.4-1.1c0.4-0.5,0.7-1,0.9-1.7c0.2-0.7,0.3-1.4,0.3-2.1c0-0.8-0.1-1.5-0.3-2.1
				c-0.2-0.7-0.5-1.2-0.9-1.7c-0.4-0.5-0.8-0.8-1.4-1.1c-0.5-0.3-1.1-0.4-1.7-0.4c-0.6,0-1.2,0.1-1.7,0.4c-0.5,0.3-1,0.6-1.4,1.1
				s-0.7,1-0.9,1.7C889.5,516.2,889.4,516.9,889.4,517.7z"/>
		</g>
		<g>
			<path class="st7" d="M906,510.3h3v1.4c0.7-0.6,1.4-1,2.2-1.3s1.5-0.4,2.2-0.4c0.9,0,1.8,0.2,2.5,0.6s1.3,1,1.7,1.7
				c1.5-1.5,3.2-2.2,5-2.2c0.7,0,1.4,0.1,2,0.4s1.1,0.6,1.5,1c0.4,0.4,0.8,1,1,1.6c0.2,0.6,0.4,1.3,0.4,2v10.2h-3v-9.7
				c0-0.8-0.2-1.5-0.8-2.1c-0.5-0.5-1.2-0.8-2-0.8c-1.2,0-2.4,0.6-3.5,1.8v10.8h-3v-9.7c0-0.8-0.2-1.5-0.8-2.1
				c-0.5-0.5-1.2-0.8-2-0.8c-1.2,0-2.4,0.6-3.5,1.8v10.8h-3V510.3z"/>
		</g>
		<g>
			<path class="st7" d="M933,506.1c0-0.5,0.2-0.9,0.5-1.3c0.3-0.3,0.8-0.5,1.3-0.5c0.5,0,0.9,0.2,1.3,0.5c0.3,0.3,0.5,0.8,0.5,1.3
				s-0.2,0.9-0.5,1.3s-0.8,0.5-1.3,0.5c-0.5,0-0.9-0.2-1.3-0.5S933,506.6,933,506.1z M933.3,510.3h3v14.8h-3V510.3z"/>
		</g>
		<g>
			<path class="st7" d="M941.1,517.7c0-1.2,0.2-2.2,0.6-3.1c0.4-1,0.9-1.8,1.5-2.5c0.7-0.7,1.4-1.2,2.3-1.6c0.9-0.4,1.9-0.6,3-0.6
				c1.5,0,2.9,0.3,4.3,1v2.7c-0.6-0.4-1.3-0.8-1.9-1c-0.7-0.2-1.3-0.3-1.9-0.3c-0.7,0-1.4,0.1-1.9,0.4c-0.6,0.3-1.1,0.6-1.5,1.1
				c-0.4,0.5-0.8,1-1,1.7c-0.2,0.7-0.4,1.4-0.4,2.1c0,0.8,0.1,1.5,0.4,2.1s0.6,1.2,1,1.7c0.4,0.5,0.9,0.8,1.5,1.1
				c0.6,0.3,1.2,0.4,1.9,0.4c0.6,0,1.3-0.1,1.9-0.3s1.3-0.5,1.9-1v2.7c-1.4,0.7-2.9,1-4.3,1c-1.1,0-2.1-0.2-3-0.6s-1.7-0.9-2.3-1.6
				s-1.2-1.5-1.5-2.5C941.3,519.9,941.1,518.8,941.1,517.7z"/>
		</g>
		<g>
			<path class="st7" d="M804.6,560.7h-3v-1.2c-1.2,1-2.6,1.5-4,1.5c-1,0-1.9-0.2-2.7-0.6c-0.8-0.4-1.5-0.9-2.1-1.6
				c-0.6-0.7-1.1-1.5-1.4-2.5s-0.5-2-0.5-3.1c0-1.2,0.2-2.2,0.5-3.1c0.3-1,0.8-1.8,1.4-2.5s1.3-1.2,2.1-1.6c0.8-0.4,1.7-0.6,2.7-0.6
				c1.4,0,2.8,0.5,4,1.5v-7.7h3V560.7z M794,553.3c0,0.8,0.1,1.5,0.3,2.1c0.2,0.6,0.5,1.2,0.9,1.7c0.4,0.5,0.8,0.8,1.3,1.1
				c0.5,0.3,1.1,0.4,1.7,0.4c1.2,0,2.4-0.5,3.4-1.6v-7.3c-1.1-1-2.2-1.6-3.4-1.6c-0.6,0-1.2,0.1-1.7,0.4c-0.5,0.3-0.9,0.6-1.3,1.1
				c-0.4,0.5-0.7,1-0.9,1.7C794.1,551.8,794,552.5,794,553.3z"/>
		</g>
		<g>
			<path class="st7" d="M809.5,553.2c0-1.1,0.2-2.2,0.5-3.1c0.3-0.9,0.8-1.7,1.5-2.4c0.6-0.7,1.4-1.2,2.2-1.6s1.8-0.6,2.8-0.6
				c0.9,0,1.8,0.2,2.6,0.5c0.8,0.3,1.4,0.9,2,1.5c0.5,0.7,1,1.4,1.3,2.3s0.5,1.9,0.5,3v0.6c0,0.2,0,0.4-0.1,0.6h-10.3
				c0,0.7,0.2,1.3,0.4,1.9c0.2,0.6,0.6,1.1,1,1.5c0.4,0.4,0.9,0.7,1.5,1s1.2,0.3,1.9,0.3c1.4,0,2.9-0.5,4.4-1.4v2.6
				c-1.6,0.8-3.2,1.2-4.8,1.2c-1.1,0-2.1-0.2-3-0.6s-1.7-0.9-2.3-1.6s-1.2-1.5-1.5-2.5C809.7,555.4,809.5,554.4,809.5,553.2z
				 M819.9,552.1c0-1.2-0.4-2.3-1-3s-1.5-1.2-2.5-1.2c-1.1,0-2,0.4-2.7,1.2c-0.7,0.8-1.2,1.8-1.2,3H819.9z"/>
		</g>
		<g>
			<path class="st7" d="M834.1,560.7h-2.5l-5.9-14.8h3.1l4.1,10.8l4.1-10.8h3.1L834.1,560.7z"/>
		</g>
		<g>
			<path class="st7" d="M842.7,553.2c0-1.1,0.2-2.2,0.5-3.1s0.8-1.7,1.5-2.4s1.4-1.2,2.2-1.6s1.8-0.6,2.8-0.6c0.9,0,1.8,0.2,2.6,0.5
				c0.8,0.3,1.4,0.9,2,1.5c0.5,0.7,1,1.4,1.3,2.3s0.5,1.9,0.5,3v0.6c0,0.2,0,0.4-0.1,0.6h-10.3c0,0.7,0.2,1.3,0.4,1.9
				c0.3,0.6,0.6,1.1,1,1.5c0.4,0.4,0.9,0.7,1.5,1s1.2,0.3,1.9,0.3c1.4,0,2.9-0.5,4.4-1.4v2.6c-1.6,0.8-3.2,1.2-4.8,1.2
				c-1.1,0-2.1-0.2-3-0.6s-1.7-0.9-2.3-1.6s-1.2-1.5-1.5-2.5C842.9,555.4,842.7,554.4,842.7,553.2z M853.1,552.1c0-1.2-0.4-2.3-1-3
				s-1.5-1.2-2.5-1.2c-1.1,0-2,0.4-2.7,1.2c-0.7,0.8-1.2,1.8-1.2,3H853.1z"/>
		</g>
		<g>
			<path class="st7" d="M860.8,539.4h3v21.3h-3V539.4z"/>
		</g>
		<g>
			<path class="st7" d="M868.7,553.3c0-1.2,0.2-2.2,0.5-3.1c0.4-1,0.9-1.8,1.5-2.5s1.4-1.2,2.3-1.6c0.9-0.4,1.9-0.6,3-0.6
				s2.1,0.2,3,0.6s1.7,0.9,2.3,1.6c0.7,0.7,1.2,1.5,1.5,2.5c0.4,1,0.5,2,0.5,3.1c0,1.2-0.2,2.2-0.5,3.1s-0.9,1.8-1.5,2.5
				c-0.7,0.7-1.4,1.2-2.3,1.6c-0.9,0.4-1.9,0.6-3,0.6s-2.1-0.2-3-0.6s-1.7-0.9-2.3-1.6c-0.7-0.7-1.2-1.5-1.5-2.5
				S868.7,554.5,868.7,553.3z M871.7,553.3c0,0.8,0.1,1.5,0.3,2.1c0.2,0.7,0.5,1.2,0.9,1.7c0.4,0.5,0.8,0.8,1.4,1.1
				c0.5,0.3,1.1,0.4,1.7,0.4c0.6,0,1.2-0.1,1.7-0.4c0.5-0.3,1-0.6,1.4-1.1c0.4-0.5,0.7-1,0.9-1.7c0.2-0.7,0.3-1.4,0.3-2.1
				c0-0.8-0.1-1.5-0.3-2.1c-0.2-0.7-0.5-1.2-0.9-1.7c-0.4-0.5-0.8-0.8-1.4-1.1c-0.5-0.3-1.1-0.4-1.7-0.4c-0.6,0-1.2,0.1-1.7,0.4
				c-0.5,0.3-1,0.6-1.4,1.1c-0.4,0.5-0.7,1-0.9,1.7C871.8,551.8,871.7,552.5,871.7,553.3z"/>
		</g>
		<g>
			<path class="st7" d="M888.3,545.9h3v1.2c1.2-1,2.6-1.5,4-1.5c1,0,1.9,0.2,2.7,0.6s1.5,0.9,2.1,1.6c0.6,0.7,1,1.5,1.4,2.5
				c0.3,1,0.5,2,0.5,3.1c0,1.2-0.2,2.2-0.5,3.1s-0.8,1.8-1.4,2.5c-0.6,0.7-1.3,1.2-2.1,1.6c-0.8,0.4-1.7,0.6-2.7,0.6
				c-1.4,0-2.8-0.5-4-1.5v7.7h-3V545.9z M898.9,553.3c0-0.8-0.1-1.5-0.3-2.1c-0.2-0.6-0.5-1.2-0.9-1.7c-0.4-0.5-0.8-0.8-1.3-1.1
				c-0.5-0.3-1.1-0.4-1.7-0.4c-0.6,0-1.2,0.1-1.8,0.4c-0.6,0.3-1.2,0.7-1.7,1.2v7.3c0.5,0.5,1.1,0.9,1.7,1.2
				c0.6,0.3,1.2,0.4,1.8,0.4c0.6,0,1.2-0.1,1.7-0.4c0.5-0.3,0.9-0.6,1.3-1.1c0.4-0.5,0.7-1,0.9-1.7
				C898.8,554.8,898.9,554.1,898.9,553.3z"/>
		</g>
		<g>
			<path class="st7" d="M906.9,545.9h3v1.4c0.7-0.6,1.4-1,2.2-1.3s1.5-0.4,2.2-0.4c0.9,0,1.8,0.2,2.5,0.6s1.3,1,1.7,1.7
				c1.5-1.5,3.2-2.2,5-2.2c0.7,0,1.4,0.1,2,0.4c0.6,0.2,1.1,0.6,1.5,1c0.4,0.4,0.8,1,1,1.6c0.2,0.6,0.4,1.3,0.4,2v10.2h-3V551
				c0-0.8-0.2-1.5-0.8-2.1c-0.5-0.5-1.2-0.8-2-0.8c-1.2,0-2.4,0.6-3.5,1.8v10.8h-3V551c0-0.8-0.2-1.5-0.8-2.1
				c-0.5-0.5-1.2-0.8-2-0.8c-1.2,0-2.4,0.6-3.5,1.8v10.8h-3V545.9z"/>
		</g>
		<g>
			<path class="st7" d="M933.1,553.2c0-1.1,0.2-2.2,0.5-3.1s0.8-1.7,1.5-2.4s1.4-1.2,2.2-1.6s1.8-0.6,2.8-0.6c0.9,0,1.8,0.2,2.6,0.5
				c0.8,0.3,1.4,0.9,2,1.5c0.5,0.7,1,1.4,1.3,2.3c0.3,0.9,0.5,1.9,0.5,3v0.6c0,0.2,0,0.4-0.1,0.6h-10.3c0,0.7,0.2,1.3,0.4,1.9
				c0.3,0.6,0.6,1.1,1,1.5c0.4,0.4,0.9,0.7,1.5,1s1.2,0.3,1.9,0.3c1.4,0,2.9-0.5,4.4-1.4v2.6c-1.6,0.8-3.2,1.2-4.8,1.2
				c-1.1,0-2.1-0.2-3-0.6s-1.7-0.9-2.3-1.6s-1.2-1.5-1.5-2.5C933.3,555.4,933.1,554.4,933.1,553.2z M943.5,552.1c0-1.2-0.4-2.3-1-3
				s-1.5-1.2-2.5-1.2c-1.1,0-2,0.4-2.7,1.2c-0.7,0.8-1.2,1.8-1.2,3H943.5z"/>
		</g>
		<g>
			<path class="st7" d="M951.2,545.9h3v1.5c0.7-0.6,1.4-1,2.2-1.4c0.8-0.3,1.6-0.5,2.3-0.5c0.8,0,1.5,0.1,2.1,0.4
				c0.6,0.3,1.2,0.6,1.7,1.1s0.8,1,1.1,1.7c0.3,0.6,0.4,1.3,0.4,2.1v9.9h-3v-9.5c0-0.9-0.3-1.7-0.9-2.3s-1.3-0.9-2.2-0.9
				c-1.3,0-2.6,0.6-3.7,1.9v10.7h-3V545.9z"/>
		</g>
		<g>
			<path class="st7" d="M973.8,545.9h4.7v2.4h-4.7v7.9c0,0.7,0.2,1.3,0.7,1.7s1,0.7,1.8,0.7c0.3,0,0.7-0.1,1.1-0.2
				c0.4-0.1,0.8-0.3,1.2-0.5v2.5c-1.1,0.4-2.1,0.7-3,0.7c-0.7,0-1.3-0.1-1.9-0.3c-0.6-0.2-1.1-0.5-1.5-0.9c-0.4-0.4-0.7-0.9-1-1.4
				s-0.4-1.2-0.4-1.8v-8.2h-2.7v-2.4h2.7v-4.2h3L973.8,545.9L973.8,545.9z"/>
		</g>
	</g>
	<g class="st8">
		<g>
			<path class="st7" d="M579.3,851.3c0-1.1,0.2-2.2,0.5-3.1s0.8-1.7,1.5-2.4s1.4-1.2,2.2-1.6s1.8-0.6,2.8-0.6c0.9,0,1.8,0.2,2.6,0.5
				c0.8,0.3,1.4,0.9,2,1.5c0.5,0.7,1,1.4,1.3,2.3s0.5,1.9,0.5,3v0.6c0,0.2,0,0.4-0.1,0.6h-10.3c0,0.7,0.2,1.3,0.4,1.9
				c0.3,0.6,0.6,1.1,1,1.5c0.4,0.4,0.9,0.7,1.5,1s1.2,0.3,1.9,0.3c1.4,0,2.9-0.5,4.4-1.4v2.6c-1.6,0.8-3.2,1.2-4.8,1.2
				c-1.1,0-2.1-0.2-3-0.6s-1.7-0.9-2.3-1.6s-1.2-1.5-1.5-2.5C579.4,853.5,579.3,852.5,579.3,851.3z M589.7,850.2c0-1.2-0.4-2.3-1-3
				s-1.5-1.2-2.5-1.2c-1.1,0-2,0.4-2.7,1.2c-0.7,0.8-1.2,1.8-1.2,3H589.7z"/>
		</g>
		<g>
			<path class="st7" d="M610,865.3h-3v-7.7c-1.2,1-2.6,1.5-4,1.5c-1,0-1.9-0.2-2.7-0.6c-0.8-0.4-1.5-0.9-2.1-1.6
				c-0.6-0.7-1.1-1.5-1.4-2.5s-0.5-2-0.5-3.1c0-1.2,0.2-2.2,0.5-3.1c0.3-1,0.8-1.8,1.4-2.5s1.3-1.2,2.1-1.6c0.8-0.4,1.7-0.6,2.7-0.6
				c1.4,0,2.8,0.5,4,1.5V844h3V865.3z M599.4,851.4c0,0.8,0.1,1.5,0.3,2.1c0.2,0.6,0.5,1.2,0.9,1.7c0.4,0.5,0.8,0.8,1.3,1.1
				c0.5,0.3,1.1,0.4,1.7,0.4c1.2,0,2.4-0.5,3.4-1.6v-7.3c-1.1-1-2.2-1.6-3.4-1.6c-0.6,0-1.2,0.1-1.7,0.4c-0.5,0.3-0.9,0.6-1.3,1.1
				c-0.4,0.5-0.7,1-0.9,1.7C599.5,850,599.4,850.7,599.4,851.4z"/>
		</g>
		<g>
			<path class="st7" d="M628.6,858.9h-3v-1.5c-0.7,0.6-1.4,1-2.2,1.4c-0.8,0.3-1.6,0.5-2.3,0.5c-0.8,0-1.5-0.1-2.1-0.4
				c-0.6-0.3-1.2-0.6-1.6-1.1s-0.8-1-1.1-1.7c-0.3-0.6-0.4-1.3-0.4-2.1V844h3v9.5c0,0.9,0.3,1.7,0.9,2.2s1.3,0.9,2.2,0.9
				c0.7,0,1.3-0.2,1.9-0.5c0.6-0.3,1.2-0.8,1.8-1.4V844h3L628.6,858.9L628.6,858.9z"/>
		</g>
		<g>
			<path class="st7" d="M634.2,839.8c0-0.5,0.2-0.9,0.5-1.3c0.3-0.3,0.8-0.5,1.3-0.5s0.9,0.2,1.3,0.5c0.3,0.3,0.5,0.8,0.5,1.3
				s-0.2,0.9-0.5,1.3c-0.3,0.3-0.8,0.5-1.3,0.5c-0.5,0-0.9-0.2-1.3-0.5C634.4,840.8,634.2,840.3,634.2,839.8z M634.5,844h3v14.8h-3
				V844z"/>
		</g>
		<g>
			<path class="st7" d="M647.5,844h4.7v2.4h-4.7v7.9c0,0.7,0.2,1.3,0.7,1.7s1,0.7,1.8,0.7c0.3,0,0.7-0.1,1.1-0.2s0.8-0.3,1.2-0.5
				v2.5c-1.1,0.4-2.1,0.7-3,0.7c-0.7,0-1.3-0.1-1.9-0.3c-0.6-0.2-1.1-0.5-1.5-0.9c-0.4-0.4-0.7-0.9-1-1.4s-0.4-1.2-0.4-1.8v-8.2
				h-2.7V844h2.7v-4.2h3L647.5,844L647.5,844z"/>
		</g>
		<g>
			<path class="st7" d="M665.2,857.5c-0.7,0.5-1.4,1-2.2,1.3c-0.8,0.3-1.6,0.5-2.4,0.5c-0.7,0-1.3-0.1-1.9-0.3s-1.1-0.5-1.5-0.9
				c-0.4-0.4-0.7-0.8-1-1.4s-0.3-1.1-0.3-1.7c0-0.8,0.2-1.5,0.5-2.1s0.8-1.2,1.4-1.6s1.4-0.8,2.2-1.1s1.8-0.4,2.9-0.4
				c0.7,0,1.4,0,2.1,0.1v-1c0-0.8-0.3-1.5-0.9-2c-0.6-0.5-1.3-0.8-2.3-0.8c-1.6,0-3.2,0.5-4.8,1.4v-2.5c1.7-0.8,3.4-1.2,5.1-1.2
				c0.8,0,1.6,0.1,2.3,0.4s1.3,0.6,1.8,1.1s0.9,1,1.1,1.7c0.3,0.6,0.4,1.3,0.4,2.1v10h-2.8L665.2,857.5L665.2,857.5z M659,854.5
				c0,0.7,0.2,1.3,0.7,1.7c0.5,0.4,1.1,0.7,1.8,0.7c1.3,0,2.5-0.6,3.7-1.8v-3.4c-0.7-0.1-1.3-0.1-2-0.1c-1.3,0-2.3,0.3-3.1,0.8
				C659.4,853,659,853.6,659,854.5z"/>
		</g>
		<g>
			<path class="st7" d="M673.9,837.5h3v7.7c1.2-1,2.6-1.5,4-1.5c1,0,1.9,0.2,2.7,0.6s1.5,0.9,2.1,1.6c0.6,0.7,1,1.5,1.4,2.5
				c0.3,1,0.5,2,0.5,3.1c0,1.2-0.2,2.2-0.5,3.1s-0.8,1.8-1.4,2.5s-1.3,1.2-2.1,1.6c-0.8,0.4-1.7,0.6-2.7,0.6c-1.4,0-2.8-0.5-4-1.5
				v1.2h-3V837.5z M684.5,851.4c0-0.8-0.1-1.5-0.3-2.1c-0.2-0.6-0.5-1.2-0.9-1.7c-0.4-0.5-0.8-0.8-1.3-1.1c-0.5-0.3-1.1-0.4-1.7-0.4
				c-0.6,0-1.2,0.1-1.8,0.4c-0.6,0.3-1.2,0.7-1.7,1.2v7.3c0.5,0.5,1.1,0.9,1.7,1.2c0.6,0.3,1.2,0.4,1.8,0.4c0.6,0,1.2-0.1,1.7-0.4
				c0.5-0.3,0.9-0.6,1.3-1.1c0.4-0.5,0.7-1,0.9-1.7C684.4,852.9,684.5,852.2,684.5,851.4z"/>
		</g>
		<g>
			<path class="st7" d="M692.5,837.5h3v21.3h-3V837.5z"/>
		</g>
		<g>
			<path class="st7" d="M700.4,851.3c0-1.1,0.2-2.2,0.5-3.1s0.8-1.7,1.5-2.4s1.4-1.2,2.2-1.6s1.8-0.6,2.8-0.6c0.9,0,1.8,0.2,2.6,0.5
				c0.8,0.3,1.4,0.9,2,1.5c0.5,0.7,1,1.4,1.3,2.3s0.5,1.9,0.5,3v0.6c0,0.2,0,0.4-0.1,0.6h-10.3c0,0.7,0.2,1.3,0.4,1.9
				c0.3,0.6,0.6,1.1,1,1.5c0.4,0.4,0.9,0.7,1.5,1s1.2,0.3,1.9,0.3c1.4,0,2.9-0.5,4.4-1.4v2.6c-1.6,0.8-3.2,1.2-4.8,1.2
				c-1.1,0-2.1-0.2-3-0.6s-1.7-0.9-2.3-1.6s-1.2-1.5-1.5-2.5C700.5,853.5,700.4,852.5,700.4,851.3z M710.8,850.2c0-1.2-0.4-2.3-1-3
				s-1.5-1.2-2.5-1.2c-1.1,0-2,0.4-2.7,1.2c-0.7,0.8-1.2,1.8-1.2,3H710.8z"/>
		</g>
		<g>
			<path class="st7" d="M607.2,891c1.4,0.9,2.8,1.4,4.2,1.4c0.8,0,1.4-0.2,2-0.6c0.5-0.4,0.8-0.9,0.8-1.5c0-0.5-0.2-0.9-0.5-1.2
				c-0.3-0.3-0.8-0.5-1.3-0.7c-0.5-0.2-1.1-0.4-1.8-0.6s-1.2-0.5-1.8-0.8c-0.5-0.3-1-0.8-1.3-1.3c-0.4-0.5-0.5-1.2-0.5-2.1
				c0-0.7,0.1-1.2,0.4-1.8s0.6-1,1.1-1.4c0.5-0.4,1-0.7,1.7-0.9c0.7-0.2,1.4-0.3,2.2-0.3c1.3,0,2.7,0.3,4.1,0.9v2.7
				c-1.3-0.8-2.6-1.2-3.9-1.2c-0.8,0-1.4,0.2-1.9,0.5c-0.5,0.4-0.7,0.8-0.7,1.4c0,0.5,0.2,0.9,0.5,1.1s0.8,0.5,1.3,0.7
				c0.5,0.2,1.1,0.4,1.8,0.6s1.2,0.5,1.8,0.8c0.5,0.3,1,0.8,1.3,1.3s0.5,1.2,0.5,2.1c0,0.7-0.1,1.3-0.4,1.8c-0.3,0.5-0.7,1-1.1,1.4
				c-0.5,0.4-1.1,0.7-1.8,0.9s-1.4,0.3-2.2,0.3c-1.5,0-2.9-0.3-4.4-1L607.2,891L607.2,891z"/>
		</g>
		<g>
			<path class="st7" d="M620.9,887c0-1.2,0.2-2.2,0.5-3.1c0.4-1,0.9-1.8,1.5-2.5s1.4-1.2,2.3-1.6c0.9-0.4,1.9-0.6,3-0.6
				s2.1,0.2,3,0.6s1.7,0.9,2.3,1.6c0.7,0.7,1.2,1.5,1.5,2.5c0.4,1,0.5,2,0.5,3.1c0,1.2-0.2,2.2-0.5,3.1c-0.4,1-0.9,1.8-1.5,2.5
				c-0.7,0.7-1.4,1.2-2.3,1.6c-0.9,0.4-1.9,0.6-3,0.6s-2.1-0.2-3-0.6s-1.7-0.9-2.3-1.6c-0.7-0.7-1.2-1.5-1.5-2.5
				S620.9,888.2,620.9,887z M624,887c0,0.8,0.1,1.5,0.3,2.1c0.2,0.7,0.5,1.2,0.9,1.7c0.4,0.5,0.8,0.8,1.4,1.1
				c0.5,0.3,1.1,0.4,1.7,0.4c0.6,0,1.2-0.1,1.7-0.4c0.5-0.3,1-0.6,1.4-1.1c0.4-0.5,0.7-1,0.9-1.7c0.2-0.7,0.3-1.4,0.3-2.1
				c0-0.8-0.1-1.5-0.3-2.1c-0.2-0.7-0.5-1.2-0.9-1.7c-0.4-0.5-0.8-0.8-1.4-1.1c-0.5-0.3-1.1-0.4-1.7-0.4c-0.6,0-1.2,0.1-1.7,0.4
				c-0.5,0.3-1,0.6-1.4,1.1c-0.4,0.5-0.7,1-0.9,1.7C624.1,885.6,624,886.3,624,887z"/>
		</g>
		<g>
			<path class="st7" d="M639.5,887c0-1.2,0.2-2.2,0.6-3.1c0.4-1,0.9-1.8,1.5-2.5c0.7-0.7,1.4-1.2,2.3-1.6c0.9-0.4,1.9-0.6,3-0.6
				c1.5,0,2.9,0.3,4.3,1v2.7c-0.6-0.4-1.3-0.8-1.9-1c-0.7-0.2-1.3-0.3-1.9-0.3c-0.7,0-1.4,0.1-1.9,0.4s-1.1,0.6-1.5,1.1
				c-0.4,0.5-0.8,1-1,1.7c-0.2,0.7-0.4,1.4-0.4,2.1c0,0.8,0.1,1.5,0.4,2.1s0.6,1.2,1,1.7c0.4,0.5,0.9,0.8,1.5,1.1
				c0.6,0.3,1.2,0.4,1.9,0.4c0.6,0,1.3-0.1,1.9-0.3s1.3-0.5,1.9-1v2.7c-1.4,0.7-2.9,1-4.3,1c-1.1,0-2.1-0.2-3-0.6s-1.7-0.9-2.3-1.6
				s-1.2-1.5-1.5-2.5C639.7,889.2,639.5,888.2,639.5,887z"/>
		</g>
		<g>
			<path class="st7" d="M656,875.4c0-0.5,0.2-0.9,0.5-1.3c0.3-0.3,0.8-0.5,1.3-0.5s0.9,0.2,1.3,0.5c0.3,0.3,0.5,0.8,0.5,1.3
				s-0.2,0.9-0.5,1.3c-0.3,0.3-0.8,0.5-1.3,0.5c-0.5,0-0.9-0.2-1.3-0.5C656.2,876.3,656,875.9,656,875.4z M656.3,879.6h3v14.8h-3
				V879.6z"/>
		</g>
		<g>
			<path class="st7" d="M673.3,893.1c-0.7,0.5-1.4,1-2.2,1.3c-0.8,0.3-1.6,0.5-2.4,0.5c-0.7,0-1.3-0.1-1.9-0.3s-1.1-0.5-1.5-0.9
				c-0.4-0.4-0.7-0.8-1-1.4s-0.3-1.1-0.3-1.7c0-0.8,0.2-1.5,0.5-2.1s0.8-1.2,1.4-1.6s1.4-0.8,2.2-1.1s1.8-0.4,2.9-0.4
				c0.7,0,1.4,0,2.1,0.1v-1c0-0.8-0.3-1.5-0.9-2c-0.6-0.5-1.3-0.8-2.3-0.8c-1.6,0-3.2,0.5-4.8,1.4v-2.5c1.7-0.8,3.4-1.2,5.1-1.2
				c0.8,0,1.6,0.1,2.3,0.4s1.3,0.6,1.8,1.1s0.9,1,1.1,1.7c0.3,0.6,0.4,1.3,0.4,2.1v10h-2.8L673.3,893.1L673.3,893.1z M667.1,890.1
				c0,0.7,0.2,1.3,0.7,1.7c0.5,0.4,1.1,0.7,1.8,0.7c1.3,0,2.5-0.6,3.7-1.8v-3.4c-0.7-0.1-1.3-0.1-2-0.1c-1.3,0-2.3,0.3-3.1,0.8
				C667.5,888.5,667.1,889.2,667.1,890.1z"/>
		</g>
		<g>
			<path class="st7" d="M682.1,873.1h3v21.3h-3V873.1z"/>
		</g>
		<g>
			<path class="st7" d="M554.8,922.5c0-1.1,0.2-2.2,0.5-3.1c0.3-0.9,0.8-1.7,1.5-2.4c0.6-0.7,1.4-1.2,2.2-1.6s1.8-0.6,2.8-0.6
				c0.9,0,1.8,0.2,2.6,0.5c0.8,0.3,1.4,0.9,2,1.5c0.5,0.7,1,1.4,1.3,2.3s0.5,1.9,0.5,3v0.6c0,0.2,0,0.4-0.1,0.6h-10.3
				c0,0.7,0.2,1.3,0.4,1.9c0.3,0.6,0.6,1.1,1,1.5c0.4,0.4,0.9,0.7,1.5,1c0.6,0.2,1.2,0.3,1.9,0.3c1.4,0,2.9-0.5,4.4-1.4v2.6
				c-1.6,0.8-3.2,1.2-4.8,1.2c-1.1,0-2.1-0.2-3-0.6s-1.7-0.9-2.3-1.6s-1.2-1.5-1.5-2.5C555,924.8,554.8,923.7,554.8,922.5z
				 M565.2,921.4c0-1.2-0.4-2.3-1-3s-1.5-1.2-2.5-1.2c-1.1,0-2,0.4-2.7,1.2c-0.7,0.8-1.2,1.8-1.2,3H565.2z"/>
		</g>
		<g>
			<path class="st7" d="M572.9,915.2h3v1.5c0.7-0.6,1.4-1,2.2-1.4c0.8-0.3,1.6-0.5,2.3-0.5c0.8,0,1.5,0.1,2.1,0.4
				c0.6,0.3,1.2,0.6,1.7,1.1s0.8,1,1.1,1.7c0.3,0.6,0.4,1.3,0.4,2.1v9.9h-3v-9.5c0-0.9-0.3-1.7-0.9-2.3s-1.3-0.9-2.2-0.9
				c-1.3,0-2.6,0.6-3.7,1.9v10.7h-3V915.2z"/>
		</g>
		<g>
			<path class="st7" d="M598,930h-2.5l-5.9-14.8h3.1l4.1,10.8l4.1-10.8h3.1L598,930z"/>
		</g>
		<g>
			<path class="st7" d="M607.7,911c0-0.5,0.2-0.9,0.5-1.3c0.3-0.3,0.8-0.5,1.3-0.5s0.9,0.2,1.3,0.5c0.3,0.3,0.5,0.8,0.5,1.3
				s-0.2,0.9-0.5,1.3c-0.3,0.3-0.8,0.5-1.3,0.5c-0.5,0-0.9-0.2-1.3-0.5C607.9,911.9,607.7,911.5,607.7,911z M608,915.2h3V930h-3
				V915.2z"/>
		</g>
		<g>
			<path class="st7" d="M616.9,915.2h3v1.7c1.2-1.3,2.5-2,3.9-2c0.4,0,0.9,0.1,1.3,0.2v2.7c-0.5-0.2-1-0.2-1.4-0.2
				c-0.7,0-1.3,0.2-2,0.5c-0.7,0.4-1.3,0.9-1.8,1.6V930h-3L616.9,915.2L616.9,915.2z"/>
		</g>
		<g>
			<path class="st7" d="M628.2,922.6c0-1.2,0.2-2.2,0.5-3.1c0.3-1,0.9-1.8,1.5-2.5s1.4-1.2,2.3-1.6c0.9-0.4,1.9-0.6,3-0.6
				s2.1,0.2,3,0.6s1.7,0.9,2.3,1.6c0.7,0.7,1.2,1.5,1.5,2.5c0.4,1,0.5,2,0.5,3.1s-0.2,2.2-0.5,3.1s-0.9,1.8-1.5,2.5
				c-0.7,0.7-1.4,1.2-2.3,1.6s-1.9,0.6-3,0.6s-2.1-0.2-3-0.6s-1.7-0.9-2.3-1.6c-0.7-0.7-1.2-1.5-1.5-2.5S628.2,923.8,628.2,922.6z
				 M631.3,922.6c0,0.8,0.1,1.5,0.3,2.1c0.2,0.7,0.5,1.2,0.9,1.7c0.4,0.5,0.8,0.8,1.4,1.1c0.5,0.3,1.1,0.4,1.7,0.4s1.2-0.1,1.7-0.4
				c0.5-0.3,1-0.6,1.4-1.1c0.4-0.5,0.7-1,0.9-1.7c0.2-0.7,0.3-1.4,0.3-2.1c0-0.8-0.1-1.5-0.3-2.1c-0.2-0.7-0.5-1.2-0.9-1.7
				c-0.4-0.5-0.8-0.8-1.4-1.1c-0.5-0.3-1.1-0.4-1.7-0.4s-1.2,0.1-1.7,0.4c-0.5,0.3-1,0.6-1.4,1.1c-0.4,0.5-0.7,1-0.9,1.7
				C631.4,921.1,631.3,921.9,631.3,922.6z"/>
		</g>
		<g>
			<path class="st7" d="M647.8,915.2h3v1.5c0.7-0.6,1.4-1,2.2-1.4c0.8-0.3,1.6-0.5,2.3-0.5c0.8,0,1.5,0.1,2.1,0.4
				c0.6,0.3,1.2,0.6,1.7,1.1s0.8,1,1.1,1.7c0.3,0.6,0.4,1.3,0.4,2.1v9.9h-3v-9.5c0-0.9-0.3-1.7-0.9-2.3s-1.3-0.9-2.2-0.9
				c-1.3,0-2.6,0.6-3.7,1.9v10.7h-3V915.2z"/>
		</g>
		<g>
			<path class="st7" d="M666.4,915.2h3v1.4c0.7-0.6,1.4-1,2.2-1.3s1.5-0.4,2.2-0.4c0.9,0,1.8,0.2,2.5,0.6c0.7,0.4,1.3,1,1.7,1.7
				c1.5-1.5,3.2-2.2,5-2.2c0.7,0,1.4,0.1,2,0.4c0.6,0.2,1.1,0.6,1.5,1c0.4,0.4,0.8,1,1,1.6s0.3,1.3,0.3,2v10.2h-3v-9.7
				c0-0.8-0.2-1.5-0.8-2.1c-0.5-0.5-1.2-0.8-2-0.8c-1.2,0-2.4,0.6-3.5,1.8v10.8h-3v-9.7c0-0.8-0.2-1.5-0.8-2.1
				c-0.5-0.5-1.2-0.8-2-0.8c-1.2,0-2.4,0.6-3.5,1.8v10.8h-3V915.2z"/>
		</g>
		<g>
			<path class="st7" d="M692.6,922.5c0-1.1,0.2-2.2,0.5-3.1c0.3-0.9,0.8-1.7,1.5-2.4c0.6-0.7,1.4-1.2,2.2-1.6s1.8-0.6,2.8-0.6
				c0.9,0,1.8,0.2,2.6,0.5c0.8,0.3,1.4,0.9,2,1.5c0.5,0.7,1,1.4,1.3,2.3s0.5,1.9,0.5,3v0.6c0,0.2,0,0.4-0.1,0.6h-10.3
				c0,0.7,0.2,1.3,0.4,1.9c0.3,0.6,0.6,1.1,1,1.5c0.4,0.4,0.9,0.7,1.5,1c0.6,0.2,1.2,0.3,1.9,0.3c1.4,0,2.9-0.5,4.4-1.4v2.6
				c-1.6,0.8-3.2,1.2-4.8,1.2c-1.1,0-2.1-0.2-3-0.6s-1.7-0.9-2.3-1.6s-1.2-1.5-1.5-2.5C692.8,924.8,692.6,923.7,692.6,922.5z
				 M703.1,921.4c0-1.2-0.4-2.3-1-3s-1.5-1.2-2.5-1.2c-1.1,0-2,0.4-2.7,1.2c-0.7,0.8-1.2,1.8-1.2,3H703.1z"/>
		</g>
		<g>
			<path class="st7" d="M710.8,915.2h3v1.5c0.7-0.6,1.4-1,2.2-1.4c0.8-0.3,1.6-0.5,2.3-0.5c0.8,0,1.5,0.1,2.1,0.4
				c0.6,0.3,1.2,0.6,1.7,1.1s0.8,1,1.1,1.7c0.3,0.6,0.4,1.3,0.4,2.1v9.9h-3v-9.5c0-0.9-0.3-1.7-0.9-2.3s-1.3-0.9-2.2-0.9
				c-1.3,0-2.6,0.6-3.7,1.9v10.7h-3V915.2z"/>
		</g>
		<g>
			<path class="st7" d="M733.4,915.2h4.7v2.4h-4.7v7.9c0,0.7,0.2,1.3,0.7,1.7s1,0.7,1.8,0.7c0.3,0,0.7-0.1,1.1-0.2
				c0.4-0.1,0.8-0.3,1.2-0.5v2.5c-1.1,0.4-2.1,0.7-3,0.7c-0.7,0-1.3-0.1-1.9-0.3c-0.6-0.2-1.1-0.5-1.5-0.9c-0.4-0.4-0.7-0.9-1-1.4
				s-0.4-1.2-0.4-1.8v-8.2h-2.7v-2.4h2.7V911h3L733.4,915.2L733.4,915.2z"/>
		</g>
	</g>
	<g class="st8">
		<g>
			<path class="st7" d="M343.4,510.3h3v1.5c0.7-0.6,1.4-1,2.2-1.4c0.8-0.3,1.5-0.5,2.3-0.5c0.8,0,1.5,0.1,2.1,0.4
				c0.6,0.3,1.2,0.6,1.7,1.1s0.8,1,1.1,1.7c0.3,0.6,0.4,1.3,0.4,2.1v9.9h-3v-9.5c0-0.9-0.3-1.7-0.9-2.3s-1.3-0.9-2.2-0.9
				c-1.3,0-2.6,0.6-3.7,1.9v10.7h-3L343.4,510.3L343.4,510.3z"/>
		</g>
		<g>
			<path class="st7" d="M370.1,523.8c-0.7,0.5-1.4,1-2.2,1.3c-0.8,0.3-1.5,0.5-2.4,0.5c-0.7,0-1.3-0.1-1.9-0.3s-1-0.5-1.5-0.9
				s-0.7-0.8-1-1.4s-0.3-1.1-0.3-1.7c0-0.8,0.2-1.5,0.5-2.1s0.8-1.2,1.5-1.6s1.4-0.8,2.2-1.1s1.8-0.4,2.9-0.4c0.7,0,1.4,0,2.1,0.1
				v-1c0-0.8-0.3-1.5-0.9-2c-0.6-0.5-1.3-0.8-2.3-0.8c-1.6,0-3.2,0.5-4.8,1.4v-2.5c1.7-0.8,3.4-1.2,5.1-1.2c0.8,0,1.6,0.1,2.3,0.4
				s1.3,0.6,1.8,1.1s0.9,1,1.1,1.7c0.3,0.6,0.4,1.3,0.4,2.1v10h-2.8L370.1,523.8L370.1,523.8z M363.9,520.8c0,0.7,0.2,1.3,0.7,1.7
				c0.5,0.4,1.1,0.7,1.8,0.7c1.3,0,2.5-0.6,3.7-1.8V518c-0.7-0.1-1.3-0.1-2-0.1c-1.3,0-2.3,0.3-3.1,0.8
				C364.3,519.2,363.9,519.9,363.9,520.8z"/>
		</g>
		<g>
			<path class="st7" d="M382.4,510.3h4.7v2.4h-4.7v7.9c0,0.7,0.2,1.3,0.7,1.7c0.4,0.5,1,0.7,1.8,0.7c0.3,0,0.7-0.1,1.1-0.2
				c0.4-0.1,0.8-0.3,1.2-0.5v2.5c-1.1,0.4-2.1,0.7-3,0.7c-0.7,0-1.3-0.1-1.9-0.3s-1.1-0.5-1.5-0.9s-0.7-0.9-1-1.4s-0.3-1.2-0.3-1.8
				v-8.2h-2.7v-2.4h2.7v-4.2h3L382.4,510.3L382.4,510.3z"/>
		</g>
		<g>
			<path class="st7" d="M404.6,525.1h-3v-1.5c-0.7,0.6-1.4,1-2.2,1.4c-0.8,0.3-1.5,0.5-2.3,0.5c-0.8,0-1.5-0.1-2.1-0.4
				c-0.6-0.3-1.2-0.6-1.6-1.1s-0.8-1-1.1-1.7c-0.3-0.6-0.4-1.3-0.4-2.1v-9.9h3v9.5c0,0.9,0.3,1.7,0.9,2.2s1.3,0.9,2.2,0.9
				c0.7,0,1.3-0.2,1.9-0.5c0.6-0.3,1.2-0.8,1.8-1.4v-10.7h3L404.6,525.1L404.6,525.1z"/>
		</g>
		<g>
			<path class="st7" d="M410.6,510.3h3v1.7c1.2-1.3,2.5-2,3.9-2c0.4,0,0.9,0.1,1.3,0.2v2.7c-0.5-0.2-1-0.2-1.5-0.2
				c-0.7,0-1.3,0.2-2,0.5s-1.3,0.9-1.8,1.6v10.4h-3L410.6,510.3L410.6,510.3z"/>
		</g>
		<g>
			<path class="st7" d="M431,523.8c-0.7,0.5-1.4,1-2.2,1.3c-0.8,0.3-1.5,0.5-2.4,0.5c-0.7,0-1.3-0.1-1.9-0.3s-1-0.5-1.5-0.9
				s-0.7-0.8-1-1.4s-0.3-1.1-0.3-1.7c0-0.8,0.2-1.5,0.5-2.1s0.8-1.2,1.5-1.6s1.4-0.8,2.2-1.1s1.8-0.4,2.9-0.4c0.7,0,1.4,0,2.1,0.1
				v-1c0-0.8-0.3-1.5-0.9-2c-0.6-0.5-1.3-0.8-2.3-0.8c-1.6,0-3.2,0.5-4.8,1.4v-2.5c1.7-0.8,3.4-1.2,5.1-1.2c0.8,0,1.6,0.1,2.3,0.4
				s1.3,0.6,1.8,1.1s0.9,1,1.1,1.7c0.3,0.6,0.4,1.3,0.4,2.1v10H431L431,523.8L431,523.8z M424.8,520.8c0,0.7,0.2,1.3,0.7,1.7
				c0.5,0.4,1.1,0.7,1.8,0.7c1.3,0,2.5-0.6,3.7-1.8V518c-0.7-0.1-1.3-0.1-2-0.1c-1.3,0-2.3,0.3-3.1,0.8
				C425.2,519.2,424.8,519.9,424.8,520.8z"/>
		</g>
		<g>
			<path class="st7" d="M439.7,503.8h3v21.3h-3V503.8z"/>
		</g>
		<g>
			<path class="st7" d="M474.3,515.9h-3.9v7.9c-2.1,1.1-4.3,1.7-6.5,1.7c-1,0-2-0.1-2.9-0.4s-1.6-0.7-2.2-1.2s-1.1-1.1-1.5-1.8
				c-0.3-0.7-0.5-1.5-0.5-2.3c0-1.2,0.3-2.3,1-3.2s1.6-1.6,2.8-2c-1.1-0.3-1.9-1-2.5-1.8c-0.6-0.9-0.9-1.8-0.9-3
				c0-0.8,0.2-1.5,0.5-2.2s0.8-1.2,1.3-1.7s1.2-0.8,2-1.1c0.8-0.3,1.7-0.4,2.6-0.4c1.7,0,3.3,0.4,5,1.2v2.8c-1.6-1-3.1-1.5-4.7-1.5
				c-1.1,0-2,0.3-2.7,0.9c-0.7,0.6-1,1.4-1,2.3c0,0.5,0.1,1,0.3,1.4c0.2,0.4,0.5,0.8,0.9,1.1c0.4,0.3,0.8,0.5,1.4,0.7
				c0.5,0.2,1.1,0.2,1.8,0.2h9.5L474.3,515.9L474.3,515.9z M459.9,519.5c0,1,0.4,1.8,1.2,2.5s1.8,1,3.1,1c0.5,0,1-0.1,1.6-0.2
				c0.5-0.1,1.1-0.3,1.6-0.5v-6.3h-2.8c-0.7,0-1.3,0.1-1.9,0.3s-1.1,0.4-1.5,0.7c-0.4,0.3-0.7,0.7-1,1.1
				C460.1,518.5,459.9,519,459.9,519.5z"/>
		</g>
		<g>
			<path class="st7" d="M486.8,503.8h3v7.7c1.2-1,2.6-1.5,4-1.5c1,0,1.9,0.2,2.7,0.6s1.5,0.9,2.1,1.6c0.6,0.7,1,1.5,1.4,2.5
				c0.3,1,0.5,2,0.5,3.1c0,1.2-0.2,2.2-0.5,3.1s-0.8,1.8-1.4,2.5c-0.6,0.7-1.3,1.2-2.1,1.6c-0.8,0.4-1.7,0.6-2.7,0.6
				c-1.4,0-2.8-0.5-4-1.5v1.2h-3V503.8z M497.4,517.7c0-0.8-0.1-1.5-0.3-2.1c-0.2-0.6-0.5-1.2-0.9-1.7c-0.4-0.5-0.8-0.8-1.3-1.1
				c-0.5-0.3-1.1-0.4-1.7-0.4c-0.6,0-1.2,0.1-1.8,0.4c-0.6,0.3-1.2,0.7-1.7,1.2v7.3c0.5,0.5,1.1,0.9,1.7,1.2
				c0.6,0.3,1.2,0.4,1.8,0.4c0.6,0,1.2-0.1,1.7-0.4c0.5-0.3,0.9-0.6,1.3-1.1s0.7-1,0.9-1.7C497.3,519.2,497.4,518.5,497.4,517.7z"/>
		</g>
		<g>
			<path class="st7" d="M518,525.1h-3v-1.5c-0.7,0.6-1.4,1-2.2,1.4c-0.8,0.3-1.6,0.5-2.3,0.5c-0.8,0-1.5-0.1-2.1-0.4
				c-0.6-0.3-1.2-0.6-1.6-1.1s-0.8-1-1.1-1.7c-0.3-0.6-0.4-1.3-0.4-2.1v-9.9h3v9.5c0,0.9,0.3,1.7,0.9,2.2s1.3,0.9,2.2,0.9
				c0.7,0,1.3-0.2,1.9-0.5c0.6-0.3,1.2-0.8,1.8-1.4v-10.7h3L518,525.1L518,525.1z"/>
		</g>
		<g>
			<path class="st7" d="M523.6,506.1c0-0.5,0.2-0.9,0.5-1.3c0.3-0.3,0.8-0.5,1.3-0.5c0.5,0,0.9,0.2,1.3,0.5c0.3,0.3,0.5,0.8,0.5,1.3
				s-0.2,0.9-0.5,1.3s-0.8,0.5-1.3,0.5s-0.9-0.2-1.3-0.5S523.6,506.6,523.6,506.1z M523.9,510.3h3v14.8h-3V510.3z"/>
		</g>
		<g>
			<path class="st7" d="M533.3,503.8h3v21.3h-3V503.8z"/>
		</g>
		<g>
			<path class="st7" d="M554.9,525.1h-3v-1.2c-1.2,1-2.6,1.5-4,1.5c-1,0-1.9-0.2-2.7-0.6c-0.8-0.4-1.5-0.9-2.1-1.6
				c-0.6-0.7-1.1-1.5-1.4-2.5s-0.5-2-0.5-3.1c0-1.2,0.2-2.2,0.5-3.1c0.3-1,0.8-1.8,1.4-2.5s1.3-1.2,2.1-1.6c0.8-0.4,1.7-0.6,2.7-0.6
				c1.4,0,2.8,0.5,4,1.5v-7.7h3V525.1z M544.3,517.7c0,0.8,0.1,1.5,0.3,2.1c0.2,0.6,0.5,1.2,0.9,1.7c0.4,0.5,0.8,0.8,1.3,1.1
				c0.5,0.3,1.1,0.4,1.7,0.4c1.2,0,2.4-0.5,3.4-1.6v-7.3c-1.1-1-2.2-1.6-3.4-1.6c-0.6,0-1.2,0.1-1.7,0.4c-0.5,0.3-0.9,0.6-1.3,1.1
				c-0.4,0.5-0.7,1-0.9,1.7C544.4,516.2,544.3,516.9,544.3,517.7z"/>
		</g>
		<g>
			<path class="st7" d="M357.5,553.2c0-1.1,0.2-2.2,0.5-3.1c0.3-0.9,0.8-1.7,1.5-2.4c0.6-0.7,1.4-1.2,2.2-1.6s1.8-0.6,2.8-0.6
				c0.9,0,1.8,0.2,2.5,0.5c0.8,0.3,1.4,0.9,2,1.5s1,1.4,1.3,2.3c0.3,0.9,0.5,1.9,0.5,3v0.6c0,0.2,0,0.4-0.1,0.6h-10.3
				c0,0.7,0.2,1.3,0.4,1.9c0.3,0.6,0.6,1.1,1,1.5c0.4,0.4,0.9,0.7,1.5,1s1.2,0.3,1.9,0.3c1.4,0,2.9-0.5,4.4-1.4v2.6
				c-1.6,0.8-3.2,1.2-4.8,1.2c-1.1,0-2.1-0.2-3-0.6s-1.7-0.9-2.3-1.6s-1.2-1.5-1.5-2.5C357.7,555.4,357.5,554.4,357.5,553.2z
				 M368,552.1c0-1.2-0.4-2.3-1-3s-1.5-1.2-2.5-1.2c-1.1,0-2,0.4-2.7,1.2c-0.7,0.8-1.2,1.8-1.2,3H368z"/>
		</g>
		<g>
			<path class="st7" d="M375.7,545.9h3v1.5c0.7-0.6,1.4-1,2.2-1.4c0.8-0.3,1.5-0.5,2.3-0.5c0.8,0,1.5,0.1,2.1,0.4
				c0.6,0.3,1.2,0.6,1.7,1.1s0.8,1,1.1,1.7c0.3,0.6,0.4,1.3,0.4,2.1v9.9h-3v-9.5c0-0.9-0.3-1.7-0.9-2.3s-1.3-0.9-2.2-0.9
				c-1.3,0-2.6,0.6-3.7,1.9v10.7h-3L375.7,545.9L375.7,545.9z"/>
		</g>
		<g>
			<path class="st7" d="M400.7,560.7h-2.5l-5.9-14.8h3l4.1,10.8l4.1-10.8h3L400.7,560.7z"/>
		</g>
		<g>
			<path class="st7" d="M410.4,541.7c0-0.5,0.2-0.9,0.5-1.3c0.3-0.3,0.8-0.5,1.3-0.5s0.9,0.2,1.3,0.5s0.5,0.8,0.5,1.3
				s-0.2,0.9-0.5,1.3s-0.8,0.5-1.3,0.5s-0.9-0.2-1.3-0.5C410.6,542.6,410.4,542.2,410.4,541.7z M410.7,545.9h3v14.8h-3V545.9z"/>
		</g>
		<g>
			<path class="st7" d="M419.7,545.9h3v1.7c1.2-1.3,2.5-2,3.9-2c0.4,0,0.9,0.1,1.3,0.2v2.7c-0.5-0.2-1-0.2-1.5-0.2
				c-0.7,0-1.3,0.2-2,0.5c-0.7,0.4-1.3,0.9-1.8,1.6v10.4h-3L419.7,545.9L419.7,545.9z"/>
		</g>
		<g>
			<path class="st7" d="M430.9,553.3c0-1.2,0.2-2.2,0.5-3.1c0.3-1,0.9-1.8,1.5-2.5s1.4-1.2,2.3-1.6c0.9-0.4,1.9-0.6,3-0.6
				c1.1,0,2.1,0.2,3,0.6c0.9,0.4,1.7,0.9,2.3,1.6s1.2,1.5,1.5,2.5c0.4,1,0.5,2,0.5,3.1c0,1.2-0.2,2.2-0.5,3.1
				c-0.3,1-0.9,1.8-1.5,2.5c-0.7,0.7-1.4,1.2-2.3,1.6c-0.9,0.4-1.9,0.6-3,0.6c-1.1,0-2.1-0.2-3-0.6c-0.9-0.4-1.7-0.9-2.3-1.6
				s-1.2-1.5-1.5-2.5C431.1,555.5,430.9,554.5,430.9,553.3z M434,553.3c0,0.8,0.1,1.5,0.3,2.1c0.2,0.7,0.5,1.2,0.9,1.7
				c0.4,0.5,0.8,0.8,1.4,1.1c0.5,0.3,1.1,0.4,1.7,0.4s1.2-0.1,1.7-0.4c0.5-0.3,1-0.6,1.4-1.1c0.4-0.5,0.7-1,0.9-1.7
				c0.2-0.7,0.3-1.4,0.3-2.1c0-0.8-0.1-1.5-0.3-2.1c-0.2-0.7-0.5-1.2-0.9-1.7c-0.4-0.5-0.8-0.8-1.4-1.1c-0.5-0.3-1.1-0.4-1.7-0.4
				s-1.2,0.1-1.7,0.4c-0.5,0.3-1,0.6-1.4,1.1s-0.7,1-0.9,1.7C434.1,551.8,434,552.5,434,553.3z"/>
		</g>
		<g>
			<path class="st7" d="M450.6,545.9h3v1.5c0.7-0.6,1.4-1,2.2-1.4c0.8-0.3,1.5-0.5,2.3-0.5c0.8,0,1.5,0.1,2.1,0.4
				c0.6,0.3,1.2,0.6,1.7,1.1s0.8,1,1.1,1.7c0.3,0.6,0.4,1.3,0.4,2.1v9.9h-3v-9.5c0-0.9-0.3-1.7-0.9-2.3s-1.3-0.9-2.2-0.9
				c-1.3,0-2.6,0.6-3.7,1.9v10.7h-3L450.6,545.9L450.6,545.9z"/>
		</g>
		<g>
			<path class="st7" d="M469.1,545.9h3v1.4c0.7-0.6,1.4-1,2.2-1.3s1.5-0.4,2.2-0.4c0.9,0,1.8,0.2,2.5,0.6c0.7,0.4,1.3,1,1.7,1.7
				c1.5-1.5,3.2-2.2,5-2.2c0.7,0,1.4,0.1,2,0.4c0.6,0.2,1.1,0.6,1.5,1c0.4,0.4,0.8,1,1,1.6s0.3,1.3,0.3,2v10.2h-3V551
				c0-0.8-0.2-1.5-0.8-2.1c-0.5-0.5-1.2-0.8-2-0.8c-1.2,0-2.4,0.6-3.5,1.8v10.8h-3V551c0-0.8-0.2-1.5-0.8-2.1
				c-0.5-0.5-1.2-0.8-2-0.8c-1.2,0-2.4,0.6-3.5,1.8v10.8h-3L469.1,545.9L469.1,545.9z"/>
		</g>
		<g>
			<path class="st7" d="M495.4,553.2c0-1.1,0.2-2.2,0.5-3.1c0.3-0.9,0.8-1.7,1.5-2.4c0.6-0.7,1.4-1.2,2.2-1.6s1.8-0.6,2.8-0.6
				c0.9,0,1.8,0.2,2.6,0.5c0.8,0.3,1.4,0.9,2,1.5c0.5,0.7,1,1.4,1.3,2.3s0.5,1.9,0.5,3v0.6c0,0.2,0,0.4-0.1,0.6h-10.3
				c0,0.7,0.2,1.3,0.4,1.9c0.3,0.6,0.6,1.1,1,1.5c0.4,0.4,0.9,0.7,1.5,1s1.2,0.3,1.9,0.3c1.4,0,2.9-0.5,4.4-1.4v2.6
				c-1.6,0.8-3.2,1.2-4.8,1.2c-1.1,0-2.1-0.2-3-0.6s-1.7-0.9-2.3-1.6s-1.2-1.5-1.5-2.5C495.5,555.4,495.4,554.4,495.4,553.2z
				 M505.8,552.1c0-1.2-0.4-2.3-1-3s-1.5-1.2-2.5-1.2c-1.1,0-2,0.4-2.7,1.2c-0.7,0.8-1.2,1.8-1.2,3H505.8z"/>
		</g>
		<g>
			<path class="st7" d="M513.5,545.9h3v1.5c0.7-0.6,1.4-1,2.2-1.4c0.8-0.3,1.6-0.5,2.3-0.5c0.8,0,1.5,0.1,2.1,0.4
				c0.6,0.3,1.2,0.6,1.7,1.1s0.8,1,1.1,1.7c0.3,0.6,0.4,1.3,0.4,2.1v9.9h-3v-9.5c0-0.9-0.3-1.7-0.9-2.3s-1.3-0.9-2.2-0.9
				c-1.3,0-2.6,0.6-3.7,1.9v10.7h-3V545.9z"/>
		</g>
		<g>
			<path class="st7" d="M536.1,545.9h4.7v2.4h-4.7v7.9c0,0.7,0.2,1.3,0.7,1.7s1,0.7,1.8,0.7c0.3,0,0.7-0.1,1.1-0.2s0.8-0.3,1.2-0.5
				v2.5c-1.1,0.4-2.1,0.7-3,0.7c-0.7,0-1.3-0.1-1.9-0.3c-0.6-0.2-1.1-0.5-1.5-0.9c-0.4-0.4-0.7-0.9-1-1.4s-0.4-1.2-0.4-1.8v-8.2
				h-2.7v-2.4h2.7v-4.2h3L536.1,545.9L536.1,545.9z"/>
		</g>
	</g>
	<g>
		<g>
			<g>
				<path class="st7" d="M982.5,895.8c-29.2,0-52.9-23.7-52.9-52.9c0-29.2,23.7-52.9,52.9-52.9s52.9,23.7,52.9,52.9
					S1011.6,895.8,982.5,895.8z M982.5,793c-27.5,0-49.9,22.4-49.9,49.9c0,27.5,22.4,49.9,49.9,49.9s49.9-22.4,49.9-49.9
					S1010,793,982.5,793z"/>
			</g>
			<g>
				<g>
					<g>
						<path class="st7" d="M982.5,895.8c-0.8,0-1.5-0.7-1.5-1.5V791.6c0-0.8,0.7-1.5,1.5-1.5s1.5,0.7,1.5,1.5v102.8
							C983.9,895.2,983.3,895.8,982.5,895.8z"/>
					</g>
					<g>
						<path class="st7" d="M975.2,895.3c-0.3,0-0.7-0.1-1-0.4c-0.7-0.6-17.4-15.5-17.4-52s16.7-51.4,17.4-52
							c0.6-0.5,1.6-0.5,2.1,0.2c0.5,0.6,0.5,1.6-0.2,2.1c0,0-4.1,3.7-8.2,11.6c-3.7,7.3-8.2,19.9-8.2,38.2s4.4,30.9,8.2,38.2
							c4,7.9,8.1,11.5,8.2,11.6c0.6,0.5,0.7,1.5,0.1,2.1C976,895.1,975.6,895.3,975.2,895.3z"/>
					</g>
					<g>
						<path class="st7" d="M990.6,895.3c-0.4,0-0.8-0.2-1.1-0.5c-0.5-0.6-0.5-1.5,0.2-2.1c0.1-0.1,4.2-3.7,8.2-11.6
							c3.7-7.3,8.2-19.9,8.2-38.2s-4.4-30.9-8.2-38.2c-4-7.9-8.1-11.5-8.2-11.6c-0.6-0.5-0.7-1.5-0.1-2.1c0.5-0.6,1.5-0.7,2.1-0.2
							c0.7,0.6,17.4,15.5,17.4,52s-16.7,51.4-17.4,52C991.2,895.2,990.9,895.3,990.6,895.3z"/>
					</g>
				</g>
				<g>
					<g>
						<path class="st7" d="M1033.8,844.4H931.1c-0.8,0-1.5-0.7-1.5-1.5s0.7-1.5,1.5-1.5h102.8c0.8,0,1.5,0.7,1.5,1.5
							S1034.7,844.4,1033.8,844.4z"/>
					</g>
					<g>
						<path class="st7" d="M1022.4,877.1c-0.2,0-0.5-0.1-0.7-0.2c-7.4-4-20.3-8.7-39.2-8.7c-18.4,0-31,4.5-38.3,8.3
							c-0.7,0.4-1.6,0.1-2-0.6c-0.4-0.7-0.1-1.6,0.6-2c7.6-3.9,20.7-8.6,39.7-8.6c19.6,0,32.9,4.9,40.6,9.1c0.7,0.4,1,1.3,0.6,2
							C1023.4,876.8,1022.9,877.1,1022.4,877.1z"/>
					</g>
					<g>
						<path class="st7" d="M983.3,823c-19.6,0-32.9-4.9-40.6-9.1c-0.7-0.4-1-1.3-0.6-2c0.4-0.7,1.3-1,2-0.6c7.4,4,20.3,8.7,39.2,8.7
							c18.4,0,31-4.5,38.3-8.3c0.7-0.4,1.6-0.1,2,0.6c0.4,0.7,0.1,1.6-0.6,2C1015.4,818.3,1002.4,823,983.3,823z"/>
					</g>
				</g>
			</g>
		</g>
		<g>
			<g>
				<g>
					<path class="st7" d="M989,772.5c-18,0-28.6-13.6-29-14.2c-0.4-0.5-0.4-1.3,0-1.8c0.4-0.6,11-14.2,29-14.2
						c18.1,0,26.3,13.8,26.7,14.4c0.3,0.5,0.3,1,0,1.5C1015.3,758.8,1007.1,772.5,989,772.5z M963.1,757.4
						c2.6,2.9,11.9,12.2,25.9,12.2c14.3,0,21.8-9.4,23.7-12.1c-1.9-2.8-9.4-12.1-23.7-12.1C975,745.3,965.7,754.5,963.1,757.4z"/>
				</g>
				<g>
					<path class="st7" d="M990.1,758.8H951c-0.8,0-1.5-0.7-1.5-1.5s0.7-1.5,1.5-1.5h39.1c0.8,0,1.5,0.7,1.5,1.5
						C991.6,758.2,990.9,758.8,990.1,758.8z"/>
				</g>
			</g>
			<g>
				<g>
					<path class="st7" d="M893,837.8c-0.5,0-1-0.2-1.2-0.7c-0.4-0.6-9.4-15.3-3.1-32.1c6.4-17,22.2-19.8,22.8-19.9
						c0.5-0.1,1.1,0.1,1.4,0.5c0.4,0.5,10.4,13.1,4,30c-6.3,16.9-22.8,21.9-23.5,22.1C893.2,837.8,893.1,837.8,893,837.8z
						 M911.1,788.2c-3.3,0.8-14.7,4.5-19.7,17.8c-4.9,13.1,0.4,25,2.2,28.5c3.7-1.4,15.6-6.9,20.5-19.9
						C919.1,801.4,913,790.9,911.1,788.2z"/>
				</g>
				<g>
					<path class="st7" d="M889.3,847.4c-0.2,0-0.3,0-0.5-0.1c-0.8-0.3-1.2-1.1-0.9-1.9l13.8-36.6c0.3-0.8,1.1-1.2,1.9-0.9
						c0.8,0.3,1.2,1.1,0.9,1.9l-13.8,36.6C890.5,847,889.9,847.4,889.3,847.4z"/>
				</g>
			</g>
			<g>
				<g>
					<path class="st7" d="M1074,847.4c-0.1,0-0.2,0-0.2,0c-0.7-0.1-16.5-2.9-22.8-19.9c-6.3-16.9,2.7-31.5,3.1-32.1
						c0.3-0.6,1-0.8,1.7-0.6c0.7,0.2,17.2,5.2,23.5,22.1c6.4,17-3.6,29.5-4,30C1074.9,847.2,1074.4,847.4,1074,847.4z M1055.9,797.9
						c-1.8,3.5-7.2,15.4-2.2,28.5c5,13.3,16.4,17,19.7,17.8c1.9-2.8,8.1-13.1,3-26.4C1071.5,804.8,1059.6,799.3,1055.9,797.9z"/>
				</g>
				<g>
					<path class="st7" d="M1065.4,824.6c-0.6,0-1.2-0.4-1.4-1l-13.8-36.6c-0.3-0.8,0.1-1.6,0.9-1.9c0.8-0.3,1.6,0.1,1.9,0.9
						l13.8,36.6c0.3,0.8-0.1,1.6-0.9,1.9C1065.7,824.6,1065.5,824.6,1065.4,824.6z"/>
				</g>
			</g>
			<g>
				<g>
					<path class="st7" d="M939.5,926.4c-6.3,0-15.2-1.4-23.3-7.9c-14.2-11.3-12-27.2-11.9-27.9c0.1-0.5,0.4-1,0.9-1.2
						c0.6-0.2,15.7-5.9,29.8,5.5c14.1,11.2,13.8,28.5,13.8,29.2c0,0.7-0.5,1.2-1.1,1.4C947.5,925.6,944.2,926.4,939.5,926.4z
						 M947.4,924.1L947.4,924.1L947.4,924.1z M907.2,892c-0.2,3.3-0.2,15.3,10.9,24.2c10.9,8.7,23.9,7.3,27.8,6.7
						c-0.2-3.9-1.7-16.9-12.6-25.6C922.1,888.4,910.4,891,907.2,892z"/>
				</g>
				<g>
					<path class="st7" d="M955.4,932.1c-0.3,0-0.7-0.1-0.9-0.3l-30.6-24.4c-0.6-0.5-0.7-1.5-0.2-2.1s1.4-0.7,2.1-0.2l30.6,24.4
						c0.6,0.5,0.7,1.5,0.2,2.1C956.2,931.9,955.8,932.1,955.4,932.1z"/>
				</g>
			</g>
			<g>
				<g>
					<path class="st7" d="M1023.3,932.1c-5.7,0-9.7-1.5-10-1.6c-0.5-0.2-0.8-0.6-0.9-1.2c-0.1-0.7-2.3-16.6,11.9-27.9
						c14.1-11.2,30.8-7.2,31.5-7c0.6,0.2,1.1,0.7,1.1,1.4c0,0.7,0.3,18-13.8,29.2C1036.1,930.6,1028.9,932.1,1023.3,932.1z
						 M1015.2,928c3.2,1,14.9,3.6,26.1-5.3c10.9-8.7,12.4-21.7,12.6-25.6c-3.9-0.7-16.9-2-27.8,6.7
						C1015,912.6,1015,924.6,1015.2,928z"/>
				</g>
				<g>
					<path class="st7" d="M1032.8,915.3c-0.4,0-0.9-0.2-1.2-0.6c-0.5-0.6-0.4-1.6,0.2-2.1l30.6-24.4c0.6-0.5,1.6-0.4,2.1,0.2
						c0.5,0.6,0.4,1.6-0.2,2.1l-30.6,24.4C1033.5,915.2,1033.2,915.3,1032.8,915.3z"/>
				</g>
			</g>
		</g>
	</g>
	<g>
		<g>
			<g>
				<g>
					<g>
						<path class="st7" d="M299.6,930c-0.8,0-1.5-0.7-1.5-1.5v-29c0-0.1,0-0.1,0-0.2c0.1-0.7,1.6-16.2-14.7-23.7
							c-10-4.6-16.1-12.5-21-18.8c-5.4-7-8.7-10.9-13.3-9.3c-1.5,0.5-2.3,1.5-2.6,3.2c-1.3,7.6,9.8,28,22.9,38.5
							c0.6,0.5,0.8,1.4,0.2,2.1s-1.4,0.8-2.1,0.2c-12-9.5-25.8-31.3-24-41.3c0.5-2.8,2.1-4.7,4.6-5.5c6.9-2.3,11.4,3.5,16.6,10.3
							c4.7,6.1,10.5,13.7,19.8,18c17.6,8,16.5,25.2,16.4,26.6v29C301.1,929.3,300.5,930,299.6,930z"/>
					</g>
					<g>
						<path class="st7" d="M265.9,930c-0.7,0-1.3-0.5-1.5-1.2c0-0.2-3-15-17.2-29.7c-14.9-15.4-17.4-34.8-17.9-48
							c0-1.3-0.1-2.7-0.2-4.2c-1.2-25.1-1.2-39.2,2.3-42c2.1-1.6,4.4-2.1,6.7-1.4c2.8,0.9,5,3.7,6.1,7.3c1.6,5.8,3.5,35.4,3.6,36.7
							c0,0.8-0.6,1.5-1.4,1.6c-0.8,0-1.5-0.6-1.6-1.4c0-0.3-2-30.5-3.5-36c-0.8-2.7-2.3-4.7-4.2-5.3c-1.3-0.4-2.6-0.1-3.9,0.9
							c-2.9,2.3-1.7,29.3-1.2,39.5c0.1,1.6,0.1,3,0.2,4.2c0.5,12.7,2.9,31.4,17.1,46.1c14.8,15.4,17.8,30.6,18,31.2
							c0.2,0.8-0.4,1.6-1.2,1.7C266.1,930,266,930,265.9,930z"/>
					</g>
				</g>
				<g>
					<g>
						<path class="st7" d="M320.4,930c-0.8,0-1.5-0.7-1.5-1.5v-29c-0.1-1.5-1.2-18.6,16.4-26.6c9.3-4.3,15.2-11.8,19.8-18
							c5.2-6.8,9.7-12.6,16.6-10.3c2.5,0.8,4.1,2.8,4.6,5.5c1.8,10-12,31.8-24,41.3c-0.6,0.5-1.6,0.4-2.1-0.2
							c-0.5-0.6-0.4-1.6,0.2-2.1c13.2-10.5,24.3-30.9,22.9-38.5c-0.3-1.7-1.1-2.7-2.6-3.2c-4.7-1.6-8,2.3-13.3,9.3
							c-4.9,6.4-11,14.3-21,18.8c-16.3,7.5-14.8,23-14.7,23.7c0,0,0,0.1,0,0.2v29C321.9,929.3,321.2,930,320.4,930z"/>
					</g>
					<g>
						<path class="st7" d="M354.1,930c-0.1,0-0.2,0-0.3,0c-0.8-0.2-1.3-0.9-1.2-1.7c0.1-0.6,3.1-15.9,18-31.2
							c14.2-14.7,16.6-33.3,17.1-46.1c0-1.3,0.1-2.7,0.2-4.3c0.5-10.2,1.7-37.2-1.2-39.4c-1.3-1-2.6-1.3-3.9-0.9
							c-1.8,0.6-3.4,2.6-4.2,5.3c-1.5,5.5-3.5,35.7-3.5,36c0,0.8-0.8,1.4-1.6,1.4c-0.8,0-1.4-0.8-1.4-1.6c0.1-1.3,2-30.8,3.6-36.7
							c1-3.7,3.3-6.4,6.1-7.3c2.2-0.7,4.6-0.2,6.7,1.4c3.5,2.7,3.5,16.8,2.3,41.9c-0.1,1.6-0.1,3-0.2,4.3c-0.6,13.2-3,32.6-17.9,48
							c-14.2,14.7-17.2,29.6-17.2,29.7C355.4,929.5,354.8,930,354.1,930z"/>
					</g>
				</g>
			</g>
		</g>
		<g>
			<g>
				<path class="st7" d="M309.9,822.1c-0.3,0-0.6-0.1-0.9-0.3c-0.7-0.5-16.4-12.6-16.4-33.4c0-20.9,15.9-30.3,16.5-30.7
					c0.5-0.3,1-0.3,1.5,0c0.7,0.4,16.5,9.8,16.5,30.7c0,20.8-15.7,32.9-16.4,33.4C310.5,822,310.2,822.1,309.9,822.1z M309.9,760.7
					c-3,2.1-14.3,11-14.3,27.7c0,16.5,11,27.4,14.3,30.3c3.3-2.9,14.3-13.8,14.3-30.3C324.2,771.7,312.9,762.8,309.9,760.7z"/>
			</g>
			<g>
				<path class="st7" d="M327.3,832.8c-10.2,0-17.7-4.4-18.1-4.7c-0.6-0.3-0.8-1-0.7-1.7c0.2-0.7,4.6-16.5,20.6-23
					c16.1-6.5,28.3,2.8,28.8,3.2c0.4,0.3,0.6,0.8,0.6,1.4c-0.1,0.6-2.4,15.8-18.5,22.3C335.5,832.1,331.2,832.8,327.3,832.8z
					 M311.7,826.1c3.4,1.7,14.9,6.4,27.1,1.5c12.5-5.1,15.8-15.9,16.5-19.1c-2.7-1.8-12.6-7.3-25.2-2.2
					C317.9,811.2,313,822.5,311.7,826.1z"/>
			</g>
			<g>
				<path class="st7" d="M292.5,832.8c-3.9,0-8.2-0.7-12.7-2.5c-16.1-6.5-18.4-21.7-18.5-22.3c-0.1-0.5,0.1-1,0.6-1.4
					c0.5-0.4,12.7-9.7,28.8-3.2c16,6.5,20.4,22.3,20.6,23c0.2,0.6-0.1,1.3-0.7,1.7C310.2,828.3,302.6,832.8,292.5,832.8z
					 M264.4,808.5c0.7,3.2,4,14,16.5,19.1c12.2,5,23.7,0.2,27.1-1.5c-1.3-3.6-6.2-15-18.5-19.9C277,801.1,267.1,806.6,264.4,808.5z"
					/>
			</g>
			<g>
				<path class="st7" d="M309.8,855.4c-0.8,0-1.5-0.7-1.5-1.5v-64.2c0-0.8,0.7-1.5,1.5-1.5s1.5,0.7,1.5,1.5V854
					C311.3,854.8,310.6,855.4,309.8,855.4z"/>
			</g>
			<g>
				<path class="st7" d="M309.9,828.3c-0.6,0-1.1-0.3-1.4-0.9c-0.3-0.8,0.1-1.6,0.8-1.9l22.9-9.3c0.8-0.3,1.6,0.1,1.9,0.8
					s-0.1,1.6-0.8,1.9l-22.9,9.3C310.3,828.3,310.1,828.3,309.9,828.3z"/>
			</g>
			<g>
				<path class="st7" d="M309.2,828.3c-0.2,0-0.4,0-0.6-0.1l-22.9-9.3c-0.8-0.3-1.1-1.2-0.8-1.9s1.2-1.1,1.9-0.8l22.9,9.3
					c0.8,0.3,1.1,1.2,0.8,1.9C310.3,828,309.8,828.3,309.2,828.3z"/>
			</g>
		</g>
	</g>
	<g>
		<g>
			<g>
				<polygon class="st0" points="648.1,357.5 569,319.1 648.1,280.7 727.2,319.1 				"/>
				<path class="st7" d="M648.1,358.9c-0.2,0-0.4,0-0.7-0.1l-79.1-38.4c-0.5-0.2-0.8-0.8-0.8-1.3s0.3-1.1,0.8-1.3l79.1-38.4
					c0.4-0.2,0.9-0.2,1.3,0l79.1,38.4c0.5,0.2,0.8,0.8,0.8,1.3s-0.3,1.1-0.8,1.3l-79.1,38.4C648.6,358.9,648.3,358.9,648.1,358.9z
					 M572.4,319.1l75.7,36.8l75.7-36.8l-75.7-36.8L572.4,319.1z"/>
			</g>
			<g>
				<polygon class="st0" points="648.1,338.8 569,300.4 648.1,262 727.2,300.4 				"/>
				<path class="st7" d="M648.1,340.2c-0.2,0-0.4,0-0.7-0.1l-79.1-38.4c-0.5-0.2-0.8-0.8-0.8-1.3c0-0.6,0.3-1.1,0.8-1.3l79.1-38.4
					c0.4-0.2,0.9-0.2,1.3,0l79.1,38.4c0.5,0.2,0.8,0.8,0.8,1.3c0,0.6-0.3,1.1-0.8,1.3l-79.1,38.4
					C648.6,340.2,648.3,340.2,648.1,340.2z M572.4,300.4l75.7,36.8l75.7-36.8l-75.7-36.8L572.4,300.4z"/>
			</g>
			<g>
				<polygon class="st0" points="648.1,320.1 569,281.7 648.1,243.3 727.2,281.7 				"/>
				<path class="st7" d="M648.1,321.5c-0.2,0-0.4,0-0.7-0.1L568.4,283c-0.5-0.2-0.8-0.8-0.8-1.3s0.3-1.1,0.8-1.3l79.1-38.4
					c0.4-0.2,0.9-0.2,1.3,0l79.1,38.4c0.5,0.2,0.8,0.8,0.8,1.3s-0.3,1.1-0.8,1.3l-79.1,38.4C648.6,321.5,648.3,321.5,648.1,321.5z
					 M572.4,281.7l75.7,36.8l75.7-36.8l-75.7-36.8L572.4,281.7z"/>
			</g>
		</g>
		<g>
			<g>
				<path class="st0" d="M649,244.7c0,0,15.9-12.1,15.9-32.5S649,182.4,649,182.4s-15.9,9.3-15.9,29.7S649,244.7,649,244.7z"/>
				<path class="st7" d="M649,246.2c-0.3,0-0.6-0.1-0.9-0.3c-0.7-0.5-16.5-12.8-16.5-33.7c0-21.1,16-30.6,16.7-31
					c0.5-0.3,1-0.3,1.5,0c0.7,0.4,16.7,9.9,16.7,31c0,21-15.8,33.2-16.5,33.7C649.6,246.1,649.3,246.2,649,246.2z M649,184.2
					c-3.1,2.1-14.5,11.1-14.5,28c0,16.7,11.2,27.7,14.5,30.6c3.3-2.9,14.5-13.9,14.5-30.6C663.4,195.3,652,186.3,649,184.2z"/>
			</g>
			<g>
				<path class="st0" d="M649,251c0,0,14.1,8.4,29.7,2.1c15.6-6.3,17.8-21.3,17.8-21.3s-12-9.3-27.6-3C653.3,235.1,649,251,649,251z
					"/>
				<path class="st7" d="M666.6,256.9c-10.2,0-17.8-4.4-18.3-4.7c-0.6-0.3-0.8-1-0.7-1.7c0.2-0.7,4.7-16.7,20.8-23.2
					c16.2-6.6,28.6,2.8,29.1,3.2c0.4,0.3,0.6,0.9,0.6,1.4c-0.1,0.6-2.5,15.9-18.7,22.5C674.9,256.3,670.5,256.9,666.6,256.9z
					 M650.8,250.2c3.4,1.7,15,6.5,27.4,1.5c12.7-5.1,16-16.1,16.7-19.3c-2.7-1.8-12.7-7.4-25.4-2.3
					C657.1,235.1,652.1,246.6,650.8,250.2z"/>
			</g>
			<g>
				<path class="st0" d="M648.9,251c0,0-14.1,8.4-29.7,2.1c-15.6-6.3-17.8-21.3-17.8-21.3s12-9.3,27.6-3
					C644.6,235.1,648.9,251,648.9,251z"/>
				<path class="st7" d="M631.4,256.9c-3.9,0-8.3-0.7-12.8-2.5c-16.2-6.6-18.6-21.9-18.7-22.5c-0.1-0.5,0.1-1,0.6-1.4
					c0.5-0.4,12.8-9.8,29.1-3.2c16.1,6.5,20.6,22.5,20.8,23.2c0.2,0.6-0.1,1.3-0.7,1.7C649.2,252.5,641.7,256.9,631.4,256.9z
					 M603.1,232.4c0.7,3.2,4,14.2,16.7,19.3c12.4,5,23.9,0.2,27.4-1.5c-1.3-3.6-6.3-15.1-18.7-20.1
					C615.8,225,605.8,230.6,603.1,232.4z"/>
			</g>
			<g>
				<path class="st7" d="M648.9,279.8c-0.8,0-1.5-0.7-1.5-1.5v-64.8c0-0.8,0.7-1.5,1.5-1.5s1.5,0.7,1.5,1.5v64.8
					C650.4,279.2,649.8,279.8,648.9,279.8z"/>
			</g>
			<g>
				<line class="st9" x1="649" y1="251" x2="672.2" y2="241.6"/>
				<path class="st7" d="M649,252.4c-0.6,0-1.1-0.4-1.4-0.9c-0.3-0.8,0.1-1.6,0.8-1.9l23.1-9.3c0.8-0.3,1.6,0.1,1.9,0.8
					s-0.1,1.6-0.8,1.9l-23.1,9.3C649.4,252.4,649.2,252.4,649,252.4z"/>
			</g>
			<g>
				<line class="st9" x1="648.3" y1="251" x2="625.2" y2="241.6"/>
				<path class="st7" d="M648.3,252.4c-0.2,0-0.4,0-0.6-0.1l-23.1-9.3c-0.8-0.3-1.1-1.2-0.8-1.9c0.3-0.8,1.2-1.1,1.9-0.8l23.1,9.3
					c0.8,0.3,1.1,1.2,0.8,1.9C649.4,252.1,648.9,252.4,648.3,252.4z"/>
			</g>
		</g>
	</g>
	<g>
		<g>
			<g>
				<g>
					<path class="st7" d="M339.9,364.5l0.5-15.4l4.8,0.2l-0.3,9.5l4.9,0.2l0.3-8.1l4.7,0.2l-0.3,8.1l5.3,0.2l0.3-9.8l4.8,0.2
						l-0.5,15.7L339.9,364.5z"/>
				</g>
				<g>
					<path class="st7" d="M341.1,338.9l0.7-5.1l16.4-9l-15-2l0.7-5.5l24.3,3.2l-0.7,5.1l-16.4,9l15,2l-0.7,5.5L341.1,338.9z"/>
				</g>
				<g>
					<path class="st7" d="M372.6,300.5l-1.2,5l-26,3.7l1.4-5.9l17.4-2.1l-14.6-9.7l1.4-5.9L372.6,300.5z"/>
				</g>
				<g>
					<path class="st7" d="M353.3,278.2l1.8-5.7l23.3,7.4l-1.8,5.7L353.3,278.2z"/>
				</g>
				<g>
					<path class="st7" d="M358.5,262.4l3.4-8.6c0.5-1.2,1.1-2.2,1.8-3c0.8-0.8,1.6-1.5,2.5-1.9s1.9-0.7,3-0.7c1.1,0,2.1,0.2,3.2,0.6
						c1.5,0.6,2.6,1.5,3.5,2.6c0.8,1.2,1.3,2.6,1.4,4.1l10.8-1.5l-2.3,5.9l-9.8,1.2l-0.7,1.9l8,3.2l-2.2,5.4L358.5,262.4z
						 M371.1,261.1l1-2.5c0.4-1,0.4-1.8,0.1-2.7c-0.3-0.8-0.9-1.4-1.8-1.8c-0.9-0.4-1.8-0.4-2.5,0s-1.4,1-1.8,2l-1,2.5L371.1,261.1z
						"/>
				</g>
				<g>
					<path class="st7" d="M379.6,243.3c-1.6-0.9-3-1.9-4.1-3.2c-1.1-1.2-1.9-2.6-2.4-4.1s-0.7-3-0.5-4.7c0.1-1.6,0.6-3.2,1.5-4.9
						c0.8-1.6,1.9-2.9,3.1-4c1.3-1.1,2.6-1.8,4.1-2.3c1.5-0.4,3.1-0.6,4.7-0.4s3.3,0.7,5,1.6s3,1.9,4.1,3.2c1.1,1.2,1.9,2.6,2.4,4.1
						s0.7,3,0.5,4.7c-0.1,1.6-0.6,3.3-1.5,4.9c-0.8,1.6-1.9,3-3.1,4c-1.2,1-2.6,1.8-4.1,2.3c-1.5,0.5-3.1,0.6-4.7,0.4
						C382.8,244.7,381.2,244.2,379.6,243.3z M382.4,237.9c1,0.5,2,0.9,3,1c1,0.2,1.9,0.1,2.7,0c0.8-0.2,1.6-0.5,2.3-1
						c0.7-0.5,1.3-1.2,1.7-2s0.7-1.7,0.7-2.5c0-0.9-0.1-1.7-0.5-2.5c-0.3-0.8-0.9-1.6-1.5-2.3s-1.5-1.3-2.5-1.9s-2-0.9-3-1
						c-1-0.2-1.9-0.1-2.8,0c-0.9,0.2-1.6,0.5-2.3,1s-1.2,1.2-1.7,2c-0.4,0.8-0.7,1.7-0.7,2.5c0,0.9,0.1,1.7,0.5,2.5s0.9,1.5,1.6,2.2
						C380.5,236.8,381.3,237.4,382.4,237.9z"/>
				</g>
				<g>
					<path class="st7" d="M385.2,207.3l2.8-4.3l18.7-0.8l-12.6-8.4l3-4.6l20.4,13.6l-2.8,4.3l-18.7,0.8l12.6,8.4l-3.1,4.6
						L385.2,207.3z"/>
				</g>
				<g>
					<path class="st7" d="M404,180l3.3-3.9l12.2,0.8l-2.9-11.9l3.3-3.9l18.7,15.8l-3.5,4.2l-11.5-9.7l2,8.5l-2.2,2.6l-8.6-0.6
						l11.5,9.7l-3.6,4.2L404,180z"/>
				</g>
				<g>
					<path class="st7" d="M427.8,152.9l11.1-10.8l3.4,3.5l-6.8,6.6l3.4,3.5l5.8-5.7l3.2,3.3l-5.8,5.7l3.7,3.8l7-6.8l3.4,3.5
						l-11.3,11L427.8,152.9z"/>
				</g>
				<g>
					<path class="st7" d="M446.4,135.3l4-3.2l18.1,4.9l-9.5-11.8l4.3-3.5l15.3,19.1l-4,3.2l-18-4.9l9.5,11.8l-4.3,3.5L446.4,135.3z"
						/>
				</g>
				<g>
					<path class="st7" d="M479.3,116.6l-5.9,3.9l-2.7-4.1l16.8-11l2.7,4.1l-5.9,3.9l10.8,16.4l-4.9,3.2L479.3,116.6z"/>
				</g>
				<g>
					<path class="st7" d="M498.7,99.1l4.5-2.4l20.1,17l-5.1,2.8l-4.1-3.5l-7.9,4.3l0.8,5.3l-5.1,2.8L498.7,99.1z M505.6,112.5l5-2.7
						l-6.3-5.6L505.6,112.5z"/>
				</g>
				<g>
					<path class="st7" d="M518.9,88.8l5.4-2.4l7.8,18l8.4-3.7l1.9,4.4l-13.9,6L518.9,88.8z"/>
				</g>
				<g>
					<path class="st7" d="M588.4,79.8l9.3-1.7l0.9,4.6l-9.3,1.7L588.4,79.8z"/>
				</g>
				<g>
					<path class="st7" d="M611.1,76.1l9.4-1l0.5,4.6l-9.4,1L611.1,76.1z"/>
				</g>
				<g>
					<path class="st7" d="M634,74.2l9.5-0.3l0.1,4.7l-9.5,0.3L634,74.2z"/>
				</g>
				<g>
					<path class="st7" d="M657,74.1l9.5,0.5l-0.2,4.7l-9.5-0.5L657,74.1z"/>
				</g>
				<g>
					<path class="st7" d="M680,75.7l9.4,1.2l-0.6,4.6l-9.4-1.2L680,75.7z"/>
				</g>
				<g>
					<path class="st7" d="M702.8,79.1l9.3,1.9l-0.9,4.6l-9.3-1.9L702.8,79.1z"/>
				</g>
				<g>
					<path class="st7" d="M725.2,84.3l9.1,2.7l-1.3,4.5l-9.1-2.7L725.2,84.3z"/>
				</g>
				<g>
					<path class="st7" d="M747.2,91.3l8.8,3.4l-1.7,4.4l-8.8-3.4L747.2,91.3z"/>
				</g>
				<g>
					<path class="st7" d="M768.6,99.9l8.6,4l-2,4.2l-8.6-4L768.6,99.9z"/>
				</g>
				<g>
					<path class="st7" d="M789.1,110.2l8.2,4.7L795,119l-8.2-4.7L789.1,110.2z"/>
				</g>
				<g>
					<path class="st7" d="M808.9,122.1l7.8,5.3l-2.6,3.9l-7.8-5.3L808.9,122.1z"/>
				</g>
				<g>
					<path class="st7" d="M827.6,135.5l7.4,5.9l-2.9,3.6l-7.4-5.9L827.6,135.5z"/>
				</g>
				<g>
					<path class="st7" d="M845.2,150.3l6.9,6.5l-3.2,3.4l-6.9-6.5L845.2,150.3z"/>
				</g>
				<g>
					<path class="st7" d="M861.7,166.4l6.4,7l-3.4,3.1l-6.4-7L861.7,166.4z"/>
				</g>
				<g>
					<path class="st7" d="M871.6,177.6l6,7.3l-3.6,3l-6-7.3L871.6,177.6z"/>
				</g>
				<g>
					<path class="st7" d="M885.9,195.7l5.4,7.8l-3.8,2.7l-5.4-7.8L885.9,195.7z"/>
				</g>
				<g>
					<path class="st7" d="M898.7,214.9l4.8,8.2l-4,2.4l-4.8-8.2L898.7,214.9z"/>
				</g>
				<g>
					<path class="st7" d="M909.9,235l4.2,8.5l-4.2,2l-4.2-8.5L909.9,235z"/>
				</g>
				<g>
					<path class="st7" d="M919.5,255.9l3.5,8.8l-4.3,1.7l-3.5-8.8L919.5,255.9z"/>
				</g>
				<g>
					<path class="st7" d="M927.5,277.5l2.8,9l-4.5,1.4l-2.8-9.1L927.5,277.5z"/>
				</g>
				<g>
					<path class="st7" d="M933.7,299.7l2.1,9.2l-4.6,1l-2.1-9.2L933.7,299.7z"/>
				</g>
				<g>
					<path class="st7" d="M938.2,322.3l1.3,9.4l-4.6,0.6l-1.3-9.4L938.2,322.3z"/>
				</g>
				<g>
					<path class="st7" d="M940.8,345.2l0.6,9.5l-4.7,0.3l-0.6-9.5L940.8,345.2z"/>
				</g>
			</g>
		</g>
	</g>
	<g>
		<g>
			<g>
				<g>
					<path class="st7" d="M378.6,1106.6c-1.1-0.8-2.2-1.4-3.4-1.8c-1.2-0.4-2.3-0.6-3.5-0.6c-1.1,0-2.1,0.2-2.8,0.7
						c-0.7,0.5-1.1,1.2-1.1,2c0,0.7,0.2,1.2,0.8,1.6c0.5,0.4,1.2,0.8,2.1,1.1c0.8,0.3,1.7,0.7,2.7,1c1,0.3,1.8,0.8,2.7,1.4
						c0.8,0.6,1.5,1.3,2,2.2c0.5,0.9,0.8,2.1,0.7,3.5c0,1.1-0.3,2.1-0.8,3c-0.5,0.9-1.1,1.6-2,2.3c-0.8,0.6-1.8,1.1-3,1.4
						c-1.1,0.3-2.4,0.4-3.7,0.4c-1.1,0-2.3-0.2-3.4-0.4s-2.2-0.6-3.4-1.1l0.2-5.2c1,0.6,2.1,1.1,3.2,1.5c1.1,0.3,2.1,0.5,3.2,0.6
						c1.1,0,2-0.2,2.7-0.6s1-1.1,1.1-1.8c0-0.7-0.2-1.2-0.8-1.6c-0.5-0.4-1.2-0.8-2-1.1c-0.8-0.3-1.7-0.7-2.7-1
						c-1-0.4-1.9-0.8-2.7-1.4c-0.8-0.6-1.5-1.3-2-2.2c-0.5-0.9-0.8-2.1-0.7-3.5c0-1.1,0.3-2.1,0.8-3.1c0.5-0.9,1.2-1.7,2-2.3
						c0.8-0.6,1.8-1.1,3-1.4c1.2-0.3,2.4-0.5,3.8-0.4c2.5,0.1,4.9,0.7,7.3,1.9L378.6,1106.6z"/>
				</g>
				<g>
					<path class="st7" d="M354.8,1111.4c-0.2,1.8-0.8,3.5-1.6,4.9s-1.8,2.7-3.1,3.6s-2.6,1.7-4.2,2.1c-1.6,0.4-3.3,0.5-5.1,0.3
						c-1.8-0.2-3.4-0.8-4.8-1.6c-1.4-0.8-2.6-1.9-3.5-3.1s-1.6-2.7-2-4.3c-0.4-1.6-0.5-3.3-0.2-5.2c0.2-1.8,0.8-3.5,1.6-4.9
						c0.8-1.5,1.8-2.7,3-3.6s2.6-1.7,4.2-2.1c1.6-0.4,3.3-0.5,5.1-0.3c1.8,0.2,3.4,0.8,4.8,1.6c1.4,0.8,2.6,1.9,3.5,3.1
						s1.6,2.7,2,4.3C355,1107.9,355,1109.6,354.8,1111.4z M348.8,1110.6c0.2-1.1,0.1-2.2-0.1-3.1c-0.2-1-0.5-1.8-1-2.6
						c-0.5-0.7-1-1.3-1.8-1.8c-0.7-0.5-1.5-0.8-2.5-0.9c-0.9-0.1-1.8,0-2.6,0.2c-0.8,0.3-1.5,0.7-2.2,1.3s-1.2,1.3-1.6,2.2
						c-0.4,0.9-0.7,1.9-0.9,3c-0.2,1.1-0.1,2.2,0.1,3.2s0.5,1.8,1,2.6s1.1,1.4,1.8,1.8c0.7,0.5,1.5,0.8,2.5,0.9
						c0.9,0.1,1.8,0,2.6-0.2c0.8-0.3,1.5-0.7,2.2-1.3c0.6-0.6,1.2-1.3,1.6-2.2C348.3,1112.8,348.6,1111.8,348.8,1110.6z"/>
				</g>
				<g>
					<path class="st7" d="M323.4,1106.9c-0.4,1.8-1.1,3.4-2,4.8c-0.9,1.4-2.1,2.5-3.4,3.3c-1.3,0.8-2.8,1.4-4.4,1.7s-3.3,0.2-5-0.2
						c-2.4-0.6-4.6-1.7-6.7-3.3l1.2-5.1c1.8,1.8,3.6,2.9,5.6,3.4c1,0.2,2,0.3,3,0.1c1-0.2,1.8-0.5,2.6-1c0.8-0.5,1.5-1.2,2-2
						c0.6-0.8,1-1.8,1.2-2.9c0.3-1.1,0.3-2.2,0.2-3.2c-0.1-1-0.4-1.9-0.9-2.7c-0.5-0.8-1.1-1.5-1.9-2.1c-0.8-0.6-1.7-1-2.8-1.2
						c-2-0.5-4.2-0.3-6.5,0.6l1.2-5.1c2.6-0.6,5.2-0.6,7.5,0c1.8,0.4,3.3,1.1,4.6,2c1.3,0.9,2.4,2.1,3.2,3.4
						c0.8,1.3,1.3,2.8,1.6,4.5C323.9,1103.4,323.8,1105.1,323.4,1106.9z"/>
				</g>
				<g>
					<path class="st7" d="M292.6,1111.7l-5.7-1.8l7.3-23.4l5.7,1.8L292.6,1111.7z"/>
				</g>
				<g>
					<path class="st7" d="M270.5,1104.1l-4.8-1.9l0.1-26.3l5.4,2.1l-0.1,5.4l8.4,3.3l3.6-4l5.4,2.1L270.5,1104.1z M276.3,1090.3
						l-5.3-2.1l-0.2,8.4L276.3,1090.3z"/>
				</g>
				<g>
					<path class="st7" d="M249.7,1095.3l-5.3-2.7l8.8-17.6l-8.2-4.1l2.2-4.3l13.5,6.8L249.7,1095.3z"/>
				</g>
				<g>
					<path class="st7" d="M208.2,1055.5l-7.6-5.7l2.8-3.7l7.6,5.7L208.2,1055.5z"/>
				</g>
				<g>
					<path class="st7" d="M190.1,1041.3l-7.1-6.2l3.1-3.5l7.1,6.3L190.1,1041.3z"/>
				</g>
				<g>
					<path class="st7" d="M173.2,1025.7l-6.6-6.8l3.3-3.2l6.6,6.8L173.2,1025.7z"/>
				</g>
				<g>
					<path class="st7" d="M157.5,1008.8l-6-7.3l3.6-3l6,7.3L157.5,1008.8z"/>
				</g>
				<g>
					<path class="st7" d="M143.2,990.8l-5.5-7.7l3.8-2.7l5.5,7.7L143.2,990.8z"/>
				</g>
				<g>
					<path class="st7" d="M130.4,971.7l-4.8-8.1l4-2.4l4.8,8.1L130.4,971.7z"/>
				</g>
				<g>
					<path class="st7" d="M119,951.6l-4.2-8.5l4.2-2.1l4.2,8.5L119,951.6z"/>
				</g>
				<g>
					<path class="st7" d="M109.3,930.8l-3.5-8.8l4.3-1.7l3.5,8.8L109.3,930.8z"/>
				</g>
				<g>
					<path class="st7" d="M101.3,909.2l-2.8-9l4.5-1.4l2.8,9L101.3,909.2z"/>
				</g>
				<g>
					<path class="st7" d="M94.9,887l-2.1-9.2l4.5-1l2.1,9.2L94.9,887z"/>
				</g>
				<g>
					<path class="st7" d="M90.4,864.5l-1.4-9.4l4.6-0.7l1.4,9.4L90.4,864.5z"/>
				</g>
				<g>
					<path class="st7" d="M87.6,841.6l-0.6-9.5l4.7-0.3l0.6,9.5L87.6,841.6z"/>
				</g>
				<g>
					<path class="st7" d="M86.6,818.6l0.2-9.5l4.7,0.1l-0.2,9.5L86.6,818.6z"/>
				</g>
				<g>
					<path class="st7" d="M87.3,795.6l0.8-9.4l4.7,0.4L92,796L87.3,795.6z"/>
				</g>
				<g>
					<path class="st7" d="M89.9,772.7l1.6-9.3l4.6,0.8l-1.6,9.3L89.9,772.7z"/>
				</g>
				<g>
					<path class="st7" d="M94.2,750.1l2.3-9.2l4.5,1.1l-2.3,9.2L94.2,750.1z"/>
				</g>
				<g>
					<path class="st7" d="M100.3,727.9l3-9l4.4,1.5l-3,9L100.3,727.9z"/>
				</g>
				<g>
					<path class="st7" d="M108.2,706.2l3.7-8.7l4.3,1.8l-3.7,8.7L108.2,706.2z"/>
				</g>
				<g>
					<path class="st7" d="M117.7,685.3l4.4-8.4l4.1,2.2l-4.4,8.4L117.7,685.3z"/>
				</g>
				<g>
					<path class="st7" d="M128.8,665.1l5-8l4,2.5l-5,8L128.8,665.1z"/>
				</g>
				<g>
					<path class="st7" d="M141.5,645.9l5.6-7.6l3.8,2.8l-5.6,7.6L141.5,645.9z"/>
				</g>
				<g>
					<path class="st7" d="M155.6,627.7l6.2-7.2l3.5,3.1l-6.2,7.2L155.6,627.7z"/>
				</g>
				<g>
					<path class="st7" d="M171.1,610.6l6.8-6.6l3.3,3.3l-6.8,6.6L171.1,610.6z"/>
				</g>
				<g>
					<path class="st7" d="M187.9,594.9l7.2-6.1l3,3.6l-7.2,6.1L187.9,594.9z"/>
				</g>
				<g>
					<path class="st7" d="M205.9,580.5l7.7-5.5l2.7,3.8l-7.7,5.5L205.9,580.5z"/>
				</g>
			</g>
		</g>
	</g>
	<g>
		<g>
			<g>
				<g>
					<path class="st7" d="M1094.5,566.1l12.4,9.2l-2.9,3.9l-7.6-5.7l-2.9,3.9l6.5,4.8l-2.8,3.7l-6.5-4.8l-3.2,4.2l7.8,5.8l-2.9,3.9
						l-12.6-9.4L1094.5,566.1z"/>
				</g>
				<g>
					<path class="st7" d="M1105.4,589.8c1.2-1.4,2.6-2.5,4.1-3.2c1.5-0.8,3-1.2,4.6-1.3c1.6-0.1,3.1,0.1,4.7,0.6s3,1.4,4.3,2.6
						c1.8,1.6,3.2,3.7,4.3,6.2l-3.5,3.9c-0.7-2.4-1.8-4.3-3.3-5.7c-0.8-0.7-1.7-1.2-2.6-1.5c-0.9-0.3-1.8-0.4-2.8-0.3
						s-1.8,0.3-2.7,0.8c-0.9,0.5-1.7,1.1-2.5,2s-1.3,1.8-1.7,2.7c-0.4,0.9-0.5,1.9-0.5,2.8s0.2,1.8,0.7,2.7c0.4,0.9,1,1.7,1.8,2.4
						c1.5,1.4,3.5,2.2,6,2.6l-3.5,3.9c-2.6-0.8-4.8-1.9-6.6-3.5c-1.3-1.2-2.4-2.5-3.1-4s-1.1-3-1.2-4.5c-0.1-1.6,0.2-3.1,0.8-4.7
						C1103.2,592.7,1104.1,591.2,1105.4,589.8z"/>
				</g>
				<g>
					<path class="st7" d="M1125.2,607.8c1.4-1.3,2.8-2.2,4.4-2.8c1.6-0.6,3.1-0.9,4.7-0.8c1.6,0,3.1,0.4,4.6,1.1
						c1.5,0.7,2.8,1.7,4.1,3c1.2,1.3,2.1,2.8,2.7,4.3s0.8,3.1,0.7,4.7c-0.1,1.6-0.5,3.1-1.2,4.6s-1.8,2.9-3.1,4.1
						c-1.4,1.3-2.8,2.2-4.4,2.8s-3.1,0.9-4.7,0.8c-1.6,0-3.1-0.4-4.6-1.1s-2.8-1.7-4.1-3c-1.2-1.3-2.1-2.8-2.7-4.3
						c-0.6-1.5-0.8-3.1-0.7-4.7c0.1-1.6,0.5-3.1,1.2-4.6C1122.8,610.4,1123.9,609,1125.2,607.8z M1129.3,612.2
						c-0.8,0.8-1.5,1.6-2,2.5c-0.5,0.9-0.8,1.7-0.9,2.6c-0.1,0.9-0.1,1.7,0.2,2.5c0.2,0.8,0.7,1.6,1.3,2.3s1.3,1.2,2.2,1.5
						c0.8,0.3,1.6,0.4,2.5,0.4c0.9,0,1.8-0.3,2.7-0.7s1.8-1,2.6-1.8c0.8-0.8,1.5-1.6,2-2.5s0.8-1.7,0.9-2.6s0.1-1.7-0.2-2.5
						c-0.2-0.8-0.7-1.6-1.3-2.3s-1.3-1.2-2.2-1.5s-1.7-0.5-2.5-0.4c-0.9,0.1-1.8,0.3-2.7,0.7C1131,610.9,1130.2,611.5,1129.3,612.2z
						"/>
				</g>
				<g>
					<path class="st7" d="M1157.2,625.3l3.1,4.1l-5.5,17.9l12.1-9l3.3,4.4l-19.7,14.6l-3.1-4.1l5.6-17.8l-12.1,9l-3.3-4.5
						L1157.2,625.3z"/>
				</g>
				<g>
					<path class="st7" d="M1165.1,657.1c1.6-0.9,3.2-1.5,4.9-1.8c1.7-0.3,3.2-0.2,4.8,0.2s2.9,1.1,4.2,2c1.3,1,2.4,2.3,3.3,3.8
						c0.9,1.5,1.5,3.2,1.7,4.8c0.2,1.6,0.1,3.2-0.3,4.7s-1.1,2.9-2.2,4.2s-2.3,2.4-3.9,3.4s-3.2,1.5-4.9,1.8
						c-1.7,0.3-3.2,0.2-4.7-0.2c-1.5-0.4-2.9-1.1-4.2-2c-1.3-1-2.4-2.3-3.3-3.8c-0.9-1.6-1.5-3.2-1.7-4.8s-0.1-3.2,0.3-4.7
						c0.4-1.5,1.1-2.9,2.2-4.2C1162.2,659.1,1163.5,658,1165.1,657.1z M1168.2,662.3c-1,0.6-1.8,1.2-2.4,2c-0.7,0.7-1.1,1.5-1.4,2.3
						c-0.3,0.8-0.4,1.7-0.4,2.5c0.1,0.9,0.3,1.7,0.8,2.5c0.5,0.8,1.1,1.4,1.8,1.9c0.7,0.5,1.5,0.8,2.4,0.9c0.9,0.1,1.8,0.1,2.8-0.1
						c1-0.2,1.9-0.6,2.9-1.2c1-0.6,1.8-1.2,2.4-2c0.7-0.7,1.1-1.5,1.4-2.3c0.3-0.8,0.4-1.7,0.3-2.5c-0.1-0.9-0.3-1.7-0.8-2.5
						c-0.5-0.8-1.1-1.4-1.8-1.9c-0.7-0.5-1.5-0.8-2.4-0.9s-1.8-0.1-2.7,0.1C1170.2,661.3,1169.2,661.7,1168.2,662.3z"/>
				</g>
				<g>
					<path class="st7" d="M1192.8,681.1l2.1,4.7l-6.1,10.7l12,2.6l2.1,4.7l-22.4,10l-2.2-5l13.8-6.1l-8.5-1.9l-1.4-3.2l4.3-7.5
						l-13.8,6.1l-2.3-5.1L1192.8,681.1z"/>
				</g>
				<g>
					<path class="st7" d="M1206.5,714l1.9,5.6l-23.2,8l-1.9-5.6L1206.5,714z"/>
				</g>
				<g>
					<path class="st7" d="M1199.5,731.6c1.8-0.5,3.5-0.6,5.2-0.4s3.2,0.7,4.5,1.4c1.4,0.8,2.5,1.8,3.5,3.1c1,1.3,1.7,2.8,2.2,4.6
						c0.6,2.3,0.7,4.8,0.2,7.5l-5.1,1.3c0.8-2.4,0.9-4.6,0.4-6.5c-0.3-1-0.7-1.9-1.3-2.7c-0.6-0.8-1.3-1.4-2.1-1.8
						c-0.8-0.5-1.7-0.7-2.7-0.8c-1-0.1-2.1,0-3.2,0.3s-2.1,0.7-2.9,1.3c-0.8,0.6-1.5,1.3-2,2.1c-0.5,0.8-0.8,1.7-0.9,2.6
						c-0.1,1-0.1,2,0.2,3c0.5,2,1.7,3.8,3.6,5.5l-5.1,1.3c-1.8-2.1-2.9-4.3-3.6-6.6c-0.5-1.7-0.6-3.4-0.4-5s0.7-3.1,1.5-4.4
						s1.9-2.5,3.2-3.5C1196.2,732.8,1197.7,732,1199.5,731.6z"/>
				</g>
				<g>
					<path class="st7" d="M1210.1,792.3l0.6,9.5l-4.7,0.3l-0.6-9.5L1210.1,792.3z"/>
				</g>
				<g>
					<path class="st7" d="M1211.1,815.3l-0.2,9.5l-4.7-0.1l0.2-9.5L1211.1,815.3z"/>
				</g>
				<g>
					<path class="st7" d="M1210.4,838.3l-0.8,9.4l-4.7-0.4l0.8-9.4L1210.4,838.3z"/>
				</g>
				<g>
					<path class="st7" d="M1207.8,861.2l-1.6,9.3l-4.6-0.8l1.6-9.3L1207.8,861.2z"/>
				</g>
				<g>
					<path class="st7" d="M1203.5,883.8l-2.3,9.2l-4.5-1.1l2.3-9.2L1203.5,883.8z"/>
				</g>
				<g>
					<path class="st7" d="M1197.4,906.1l-3,9l-4.4-1.5l3-9L1197.4,906.1z"/>
				</g>
				<g>
					<path class="st7" d="M1189.7,927.7l-3.7,8.7l-4.3-1.8l3.7-8.7L1189.7,927.7z"/>
				</g>
				<g>
					<path class="st7" d="M1180.2,948.7l-4.4,8.4l-4.1-2.2l4.4-8.4L1180.2,948.7z"/>
				</g>
				<g>
					<path class="st7" d="M1169.1,968.8l-5,8l-4-2.5l5-8L1169.1,968.8z"/>
				</g>
				<g>
					<path class="st7" d="M1156.4,988.1l-5.6,7.6l-3.8-2.8l5.6-7.6L1156.4,988.1z"/>
				</g>
				<g>
					<path class="st7" d="M1142.3,1006.3l-6.2,7.2l-3.5-3.1l6.2-7.2L1142.3,1006.3z"/>
				</g>
				<g>
					<path class="st7" d="M1126.8,1023.4l-6.7,6.7l-3.3-3.3l6.7-6.6L1126.8,1023.4z"/>
				</g>
				<g>
					<path class="st7" d="M1110.1,1039.1l-7.2,6.1l-3-3.6l7.2-6.1L1110.1,1039.1z"/>
				</g>
				<g>
					<path class="st7" d="M1092.1,1053.6l-7.7,5.5l-2.7-3.8l7.7-5.5L1092.1,1053.6z"/>
				</g>
				<g>
					<path class="st7" d="M1073.1,1066.6l-8.1,4.9l-2.4-4l8.1-4.9L1073.1,1066.6z"/>
				</g>
				<g>
					<path class="st7" d="M1053.2,1078.1l-8.5,4.3l-2.1-4.2l8.5-4.3L1053.2,1078.1z"/>
				</g>
				<g>
					<path class="st7" d="M1032.4,1087.9l-8.8,3.6l-1.8-4.3l8.8-3.6L1032.4,1087.9z"/>
				</g>
				<g>
					<path class="st7" d="M1010.8,1096.2l-9,2.9l-1.4-4.4l9-2.9L1010.8,1096.2z"/>
				</g>
				<g>
					<path class="st7" d="M988.7,1102.6l-9.2,2.2l-1.1-4.5l9.2-2.2L988.7,1102.6z"/>
				</g>
				<g>
					<path class="st7" d="M966.2,1107.4l-9.4,1.4l-0.7-4.6l9.4-1.4L966.2,1107.4z"/>
				</g>
				<g>
					<path class="st7" d="M943.3,1110.3l-9.4,0.7l-0.3-4.7l9.4-0.7L943.3,1110.3z"/>
				</g>
			</g>
		</g>
	</g>
</g>
</svg>
